<mxfile host="65bd71144e">
    <diagram id="nLhjpAdiB5vD-R7qImV7" name="Page-1">
        <mxGraphModel dx="1002" dy="571" grid="1" gridSize="10" guides="1" tooltips="1" connect="1" arrows="1" fold="1" page="1" pageScale="1" pageWidth="827" pageHeight="1169" math="0" shadow="0">
            <root>
                <mxCell id="0"/>
                <mxCell id="1" parent="0"/>
                <mxCell id="4" value="" style="edgeStyle=none;html=1;" edge="1" parent="1" source="2" target="3">
                    <mxGeometry relative="1" as="geometry"/>
                </mxCell>
                <mxCell id="2" value="&quot;payment-gateway/v2/raise-deposit&quot;" style="whiteSpace=wrap;html=1;rounded=0;" vertex="1" parent="1">
                    <mxGeometry x="320" y="30" width="214" height="50" as="geometry"/>
                </mxCell>
                <mxCell id="6" value="" style="edgeStyle=none;html=1;" edge="1" parent="1" source="3" target="5">
                    <mxGeometry relative="1" as="geometry"/>
                </mxCell>
                <mxCell id="3" value="- isPaymentGatewayEnabled 沒有啟用就返回錯誤&lt;br&gt;- 檢查 WebId 與 Currency" style="whiteSpace=wrap;html=1;rounded=0;align=left;" vertex="1" parent="1">
                    <mxGeometry x="320" y="110" width="214" height="70" as="geometry"/>
                </mxCell>
                <mxCell id="8" value="" style="edgeStyle=none;html=1;" edge="1" parent="1" source="5" target="7">
                    <mxGeometry relative="1" as="geometry"/>
                </mxCell>
                <mxCell id="5" value="- 利用 req 的&amp;nbsp;CryptoCurrencyNetwork 計算 GasFeeRate（deposit 的話 1 + GasFeeRate 的 value，withdraw 的話 1 - GasFeeRate 的 value）&lt;br&gt;- 從 CurrencyUSD 拿到目前 Customer 的 Currency 跟 USD 的&amp;nbsp;ExchangeRate&lt;span style=&quot;color: rgba(0, 0, 0, 0); font-family: monospace; font-size: 0px;&quot;&gt;-%3CmxGraphModel%3E%3Croot%3E%3CmxCell%20id%3D%220%22%2F%3E%3CmxCell%20id%3D%221%22%20parent%3D%220%22%2F%3E%3CmxCell%20id%3D%222%22%20value%3D%22-%20isPaymentGatewayEnabled%20%E6%B2%92%E6%9C%89%E5%95%9F%E7%94%A8%E5%B0%B1%E8%BF%94%E5%9B%9E%E9%8C%AF%E8%AA%A4%26lt%3Bbr%26gt%3B-%20%E6%AA%A2%E6%9F%A5%20WebId%20%E8%88%87%20Currency%22%20style%3D%22whiteSpace%3Dwrap%3Bhtml%3D1%3Brounded%3D0%3Balign%3Dleft%3B%22%20vertex%3D%221%22%20parent%3D%221%22%3E%3CmxGeometry%20x%3D%22320%22%20y%3D%22110%22%20width%3D%22214%22%20height%3D%2270%22%20as%3D%22geometry%22%2F%3E%3C%2FmxCell%3E%3C%2Froot%3E%3C%2FmxGraphModel%3E&lt;/span&gt;" style="whiteSpace=wrap;html=1;rounded=0;align=left;" vertex="1" parent="1">
                    <mxGeometry x="252" y="200" width="350" height="90" as="geometry"/>
                </mxCell>
                <mxCell id="10" value="" style="edgeStyle=none;html=1;" edge="1" parent="1" source="7" target="9">
                    <mxGeometry relative="1" as="geometry"/>
                </mxCell>
                <mxCell id="7" value="- 檢查玩家 isOnline&lt;br&gt;- 檢查 customer 的狀態，如果不合法則發 alert 到 telegram" style="whiteSpace=wrap;html=1;rounded=0;align=left;" vertex="1" parent="1">
                    <mxGeometry x="273" y="310" width="308" height="60" as="geometry"/>
                </mxCell>
                <mxCell id="12" value="" style="edgeStyle=none;html=1;" edge="1" parent="1" source="9" target="11">
                    <mxGeometry relative="1" as="geometry"/>
                </mxCell>
                <mxCell id="9" value="執行 sp_Coloris_Account_InsertPaymentDepositRequest:&lt;br&gt;- 檢查 Customer 是否有這個玩家&lt;br&gt;- 檢查 PaymentGatewayTransaction 裡是否有 1 分鐘內的 deposit request&amp;nbsp; (1 分鐘內只能有最多一筆 request）&lt;br&gt;- 從&amp;nbsp;PaymentPercentagesDealWithCustomer 拿到&amp;nbsp;percentageTakesByPaymentProvider,&amp;nbsp;percentageWeSellToCustomer, minFeeTakeByPaymentProvider 並利用這些欄位計算&amp;nbsp;transactionFeeWeGet&lt;br&gt;- 新增一筆記錄到&amp;nbsp;PaymentGatewayTransaction&lt;br&gt;&lt;br&gt;如果新增失敗則向 telegram 發送 alert" style="whiteSpace=wrap;html=1;rounded=0;align=left;" vertex="1" parent="1">
                    <mxGeometry x="230" y="390" width="390" height="160" as="geometry"/>
                </mxCell>
                <mxCell id="14" value="" style="edgeStyle=none;html=1;" edge="1" parent="1" source="11" target="13">
                    <mxGeometry relative="1" as="geometry"/>
                </mxCell>
                <mxCell id="21" value="" style="edgeStyle=none;html=1;" edge="1" parent="1" source="11" target="20">
                    <mxGeometry relative="1" as="geometry"/>
                </mxCell>
                <mxCell id="11" value="- 從 OperatorPaymentAccount 拿到&amp;nbsp;AccountAtPaymentProvider, OperatorApiKey, MerchantPass1,&amp;nbsp;MerchantPass2. 獲取失敗就發 alert 到 telegram&lt;br&gt;- 創建&amp;nbsp;HermesDepositRequest 後，呼叫 Hermes 的 api/payment/deposit&lt;br&gt;- 失敗則向 telegram 發送 alert" style="whiteSpace=wrap;html=1;rounded=0;align=left;" vertex="1" parent="1">
                    <mxGeometry x="170" y="570" width="270" height="100" as="geometry"/>
                </mxCell>
                <mxCell id="18" value="" style="edgeStyle=none;html=1;" edge="1" parent="1" source="13" target="16">
                    <mxGeometry relative="1" as="geometry"/>
                </mxCell>
                <mxCell id="13" value="- 向 telegram 發送&amp;nbsp;TransactionStatus (目前為 PaymentProcessing 狀態)&lt;br&gt;- 更新&amp;nbsp;PaymentGatewayTransaction 的&amp;nbsp;TransactionToken&amp;nbsp;" style="whiteSpace=wrap;html=1;rounded=0;align=left;" vertex="1" parent="1">
                    <mxGeometry x="170" y="690" width="270" height="100" as="geometry"/>
                </mxCell>
                <mxCell id="16" value="" style="shape=image;verticalLabelPosition=bottom;labelBackgroundColor=default;verticalAlign=top;aspect=fixed;imageAspect=0;image=data:image/png,iVBORw0KGgoAAAANSUhEUgAAAl8AAAClCAYAAABiKZhLAAAgAElEQVR4nOydeXwN1/vH3zf7vofs+yaykSCREGIXQimqrdIWVbRStLW1RSlF29hqqSKKqq32qiViX2pLRCIikZBN9n29yf39cW9WoYmt7e8779fL62XmnDnnOedOZj7zPM+cEVlYWEgQEBAQEBAQEBB4Jcj90wYICAgICAgICPwvIYgvAQEBAQEBAYFXiCC+BAQEBAQEBAReIYL4EhAQEBAQEBB4hQjiS0BAQEBAQEDgFSKILwEBAQEBAQGBV4ggvgQEBAQEBAQEXiGC+BIQEBAQEBAQeIUI4ktAQEBAQEBA4BXyLxRf6gxa+jthx3/lS9/HSxUcP2Dlrv1sWzwco1dv3CtAnYFzt7B3909Ma2L8AgICAv8ZXD9h4x9hhIXJ/h1cxRizf9qo58Nj+maOhh1gxdtN3IH0BzIvdB+71wTjpfrqbXsVeExazc6921g0/P/nHfhVodDyQ9QZtHQrUzy16+2TIC7J4M4fK/li9QXyX5h5j6PdryPO+pqINPzoyU62vsS+moXWcL76tjuG939n8pJjDctEZkzbGEqgUQxbXpvM5rJ6ZboTWLdjONYP9vDOuNWk1+xX86eLmxk6OlW0794Rzl95RQMReCG4LmTIxI4QMY+9a889oVIrbD/ZSM8u9hjoKCMPVJVnk3x5K4fn/kBWizr0pfOSr7AW/UXYp7NJe+4BvCICdvDxHG906u8Tl5Md/wdHZwUTn/tPGfbfxfWTjSwZaIVyvX3VFXkkXdrOokW7uVf+DxiVcpEThyW0UlDH1teftipPq2zBsK8+JUDnIb8vWMKx7Gfr0mP6Zhb3t0Cp3r7q8jwSL/7CwkW/c7/y2dptFr5d8TDTQhNPelrC1Tsvsa9m0ZkpP4zCqeQS38wO5WGDMmWGfreTiR5FhE19h4URVfXK+rBw96f4VF9i3ug5nC6t2e9Cdy9bDHSUUPb1p9XO38h4VUP5f8YziC8Z4lSuHblKCoC8Ps5dvHEZ+iXLRB8wblXSCzOwMdk/rmCX8QdY3Q9l90vrpQUomWPl6IhJlfHjZZJ0jsWnE2hhgesAqG+w9kAXTBXFpMaerBNeACV/sGRLO770h/BfBOH1n8PQFjNHe8g1eUIFDZwWHuV1Hz0keSncOX2Z7HITLDt6YdllDL6BIew/3JLPrZpgYOOArSiH/+LZkhmxlxjZ5ULNsQftHAczcrkCa9+Z3EIRKiClgLth4dwpAlDDooMf7l0/ZJFyEe/PPErBqzYn5xLbV10CXPnEze9vxJc2ZpZ2OBqKMHlur1EesSfOEFsCoI5VRz9cu01msVIB7885SdHzNv8kDnzPZreZ+FcdY0vcy+qkJbTGwtYRx8JkNB8rKyc88iHvtnPALsAaIu7VFXXthI2WHLkRl4gorX9MFD+uPYjxW6bc23ZYEF7PwbOLL0keUSEhhMo2RdsnsW7zUKy8huHEMl6a4K+IYO3nE19W6y8YMXfDE8gM6Iy1Z3/YfUS2X51urqaoVWWTcLHxTEnI2reQj/e9alsFXglBW+jvo4c4YQ8bxk6rJzDcse0G8eH/W9+5L743jfDVNWPWIPvHG/Rx6oiXGxyN/EdN+49SSuqhEEJuyjaV+rBw26f4OPaih/5Rfn9Gb9J/j1KS94UQEi3bVB7Aou3BdGrTl246JzmU97L6TeP3BR/z+8tq/gWTfeY2KSOcsXDqhSX3qHGbeHS0QVehiLsRV2k8VeWXV/PZ5Vdt6f8/nl18NUJSkEx+CYiU1dCv2SlnxrAv5jHc2wJ9ZXkk4hIy48PZOGMZx2SxSZFuANMXf0iAjT7KcpXkJ5zhXGHj1g2YtmkngZZ1eyqjQ+kzObRelWls2hmIJVCdcZZv15QxcnoAVuryVJcmE75sPAtOlcnMGsYX84bjbaGPsrwEcUkm8eEbmbHsWF3IVKSN13uz+XiAK8bayshTTXleKtHHljN77TXkBy1l6xRPaoOvzqMJCxtdYx3RoX2YHArlN67yIN8Xd2NnnDgiFaUKNriaaCMpvMPV89Ij1Bu3V/WI8LkjmX++4UyItDsyed4n9GzTCk1FEdXleaTe3M/CeaHElingOieU5f5yhM8dyQ9G37N1kitFYbN56wdjlm6dgnv+ET4e0zxxbDZwOlP72fCkh9Wsyyv4MrS5MnsR74SNROfSci6rj6K7ix5KIjHFD64StvANbsQ1rGcFIKmkND+HB6fnsXf5EaTRgrEM2T8HF66zZ/AQbtdqFQ381kcSYJfG+Xd8OekgDWuV3PwLJZcO6FUkcelsIR69XFARZ3BjaUcOn5QeqejyNUEzB2NvpImSqJqKgkzi/gjmwLqLsj6HEbR7KR45h/ijqDM93JuwfVIYXw61qRuu9xK+DFsi28jj5kIPDpwEr96uaJDF1fXTGnl2IogPf3y+njwP9cqlHTIyLLF2K+/SZ6yYtbN2bozG/8Kg/i4YaikiJ6mkMD2Ky4tGcSGqCMxWMXbLANQufcaKWUoM3rsAt6rzbB32FvILbzLSp4IrwR2lYqjeOKsrSinMTuDmqhGcvijzJQTtZWpwe7i2kO8//aluOKqLeOfgSKxSD7H8nclPSE0oIie3GFBCybDud32q7TIUfb7jtck9sdTXRFWpJpW1mgcHurA5JAUAv/WJBOhf4uBhDfyGO6OrJEdVYTK3dkziwK8RDdoaHjwAK0Nl5BFTnpnApZAhdWNszvkgs93y4x307WaDrrYaSiLZbkkip9/oxunMmrnxxufr5Xi7GKKpJEd1RSGZUfvY/+UXpJc0OVHNpyKVrMJKMFRGu9abpI7PpAVM6u2MsaYiouoK8pJvsH/JXEKja2KTSrQZ9RWfBrlirK2OsoLMeEkG5+aO4cuzZdJ8riUDMYzfwoeTN5MMTe/7WwJZsm8aXlo12868syWMd2RbxdEtaesJlCeTXSgGPWV0ai9oGnT5eCETejphpKGIqLqcvIfX+X3xXH6JlcUmlV0Ys+BzhriZoKEooSTtKqfuiR5r/rXvDvBRO426HWknmfzWQqLravDdgY9opwEUR7Nl8XXcg4fhpq8M4hwit05j+pYkqgA0uvDxwgn0dDJCQ3aNf3j9dxbP/YXY2pCpMjaDpvHZW52x1ldDUSRBXJRJwqWtzP/2EKmu09m8uD8WNbFXjR6sCutRz7zJvLUwGu5fJC5jEPYGNrjqQFIegD7uVgYolacQc1YWl/Fo1B5FRG0cz8dbG8RtQNmG4bNmM8LLAh1VeRAXkXn3NOvmhXAqswr90asIHW1BwsbxfBw7mi0L+qB9Zx3jpsTyzubF9Ne8xffvf/oSxfG/hxcmvkRaZmirgSQrm3gA1AlavIIJXpoUp0Zx6uoDqozd6eTVn6nLyogdt4okNHlj7if0s1ehMOkvwiMy0HD2xc9eEaifIFXEhRMHqDIEFG3x7dcWrcYGFF3gxAFwdu+Oj4kRg0boI4o+weEKe7p2tsF/7HSOnVrAFfUgFq+YgJdmMalRp7j6oApj90549Z/KsrJYWchUCY+pP/B1oCVy2fe4/GcM2fLGuHfyot2w2cxNHsKcqHD+OJCCmswe7dRrHLmaIjOmigfXZf8tDuP6g7F4tnGkhxHcSQeRUW9sjSQU37xGjS+svKY95DF0745PU0mpCs5M+W4eQdZyZN+7yJ8xuajbe9Oh0ygWfpXF2zMPk1pUhkROF1VtULbSRUMiQqRrAaqWGGhLKEtIbLZXMvfOFcIU4lF8QnnJ/ZY7nbU8xuOdn0DkoXBw6EE7R28C520k6833ZPkIJ4g8oMwDQLGVIxZOjjgOWsEohRQ2fhcBbOCvGxNw6eqK6zsibofWqK/JmFnIQfINriYDDtK9Rq3L2LvhGj0neOJmsZ0jRzUI6m+FbY/hcHInmH3NiCWjsFHIJ+nyUZIyVGnt04m2IzYgyurE7j31AhRmPelcGN/A9j6ffEnUxPlUXt7PaUVLRLrt8exihSjhLFejau6uBaTFAvhioKcIxSkk//V3M/V381BTbohVjy5YkMi1sOsUy6ajLOZ6bUvaH+zjnRF2KObdJ/L4DQqUHGjbqR09F26jaOQgIpNzKasGHRVDwAwtrWqqxXroi0DZUAcqYsi+JWusZpyooWXjgrVTW/zn/YHcpC6cigMOrOHOmz/h5TqEDqKf+Kvm5xnmgYkcpEYtf0pOqAZ6uupABsWxzbS9BFD9gmFfDcVOLp+UyLPEJ9e4d9QouZXSsAsdD3oOKOTBxX3cwgV3Xwc8xv5ERXxHjl5Bej58MRQb5UISTh8mWVbH/4sDVE0J4Fz9UNLTzgdA8b3djBzshHxeCnfOHCW7ZuAquaTWnBrY0fmHzfR0UCA/4QoXo1JRtPbHpf0o3lyQzsqpq3muFCUlEww0FaGskGRZHp3rlOV8EWSNKPcel4/GkKtuj1fHjrwzby6P3p/J0QJQ6vMV80f7oFuSxp0r57iXVSE9WLGS+/fLntzfMxHD6aMHSFWR5YVpZHL91F8ky7osf3iN504BVDZDX1MBygp4KPsdPKatZFZ/C8iJ49LZO+RrOuLV0Zsx878i9f05nCwCn+kzedPTiKqMaE7/FY/YvCO+HprI0dBDHRV+hAMPVYBWePTxxuIxA6IIP3KAXBdfujrr0nFED3TSL3Hkph4durjgPnQqrx+dwm8ZHkxbOQupWZc4eycfTUcvOnqPYf5XqbUhU+M3vmHp++3QLnlIxKlTPKzQxtGrIw49JzE3P4rxOy5w4rAYA3mZPaWxnDgTS42Wz71ZI5pucj4um949LPF2V+XQ6VJQ7oabuSri9Dscr3GFPaxpDzTsfOnqrPzYCEGfoQuWMM5Th5KHEZyKfIjEuD0d3QOZvqCE5IlriMstpUqiiLKmMpi1QltBgqqWCVpUYKynhDg7lTv/A8ILnkd8iXRwCQ4mGGpzvuwUCok6t0eaw6Q7ikB3HSrj9/LRuFUyd6YqPb7ZwmwvdwYYweryt+jmpE7Vo3CWvDuf8wCi7Uxat5mh1vU7K+PithAuAhhMw70p8VV2kW0hkQxa6oePpQ366XMZOf88iMyQ37yFvkZGtAHiRgXirlNJ/N6P6nLTVHvwzZbZeLkPwIjVpGsO5d1uVijmXOaHUTM5LLvWiHR96dkmiuMXAA6zPqSePXlRhISENrYKKOTItSTecrWlTV8V2FyGzgAHTCgm6mJdEpg4XtYe6tIxNCG+lL1H4mOjSM7lHxg187BUnoqMmbRuM0Mc/QjgMKfv51AgMkPTUB1fI02yHqSirNUaM2NVlKimMPdBM39gKI47w6EXnLcgVxnDiTdrPFY1YSYX2rrBw0iAk9wMOVnviIm8fvAznD2nYMx7pAEPN5wn2W8QVp2+QDFUeqNjqA+mSpARt6PBzb0g6SDRO9vhNcETomcTHfMrPfvX+YuM3+2NjUox0at964TWui948/f3sfIdDXtW1zM+iUvvBnK5BOBtlPYuwK21M1ZA3NXlnL4KBOzArYsVZBwkPGQnDTFBSQmoKKVUdu3W7j0XD2ctpM/SBaTtnktscnPmoaZ8GEF+XbAQpXP3h6k8/nP54uNvh0phBPvelokV4Px7R5n2th0O/URE7omkIA9sNMwhwAqd3BRSVbTQMrUDZaAwh+yae03NOGsYup9pk9xxfMOPU1+fA45z/q+HtA+0w/5dDf7aKJ1TNw8LlMgg+WhDC9XtvqNbsPT/0pwvRcriTkkFdLNsl4BPWwyUoCxmF9unL6BBikpjRFUkhHZkz35JvbacsOrjB1fOyc6HalKPvs3WJVJv2I1pZ/ko0AaXN/w493W9lyiedj4AVrZGKFFG3MEh7Nn0qGl7XGfi5qBC0c2l/FgrtGR/F/a9aSNaTWSLItGqmAwIJrgb1OZ86VeRcvIwF4sBAhjma4VyzhWWyoQWgO2H61g5zA7/juocPVGMo7MxGnIVJJ/7nmlLrvFyc/UTOLw2hLq8sFyitoew+blcXaqYDQ4muDfU5nzpinl47BBXSgH6MMzHHKWsi3wjE1oADh9tYPlrDnT3VOXk6a4MaNcahaLbbAn+GKmTR5kBi7YT3KnhI2ncwbWEAPAa3wU0Jb7iOLg2hIfTPfBztsCMjYz/aCvpKDP8h91McDfAzgBoNwwfcyWyLn5TLzfNgY82LOc1h+54qp7kdKkP7w10Rbcijl3TJ7ImTpYor+xCgG8xZ8MSgUS2rrxQZ09pMvtCQup54uq4eDaWbH9/rP0ckD8dQVW39liqV5ESfpDaLLDsC7L2wGO6B35NiS/r4fRuq0dF3C6mT1yD1CzZfHl40NMM4h48IrfSEw09dTzU9alIeUClij6mZjkoy0FpQeqrz0v8h3h28aVggmdQEJ4129V5RO9ayGehUkWt3NYUHUVQsh3CprAhDY+tEqNvC8Sqo6QooTQ1mtromqSA5Pzn9LVXZ3P3tKxFSTJLRgcgDQAp42eqgyJK2A7ZxONm6WML5Lo7Y6QuoeTutVrhBSDJPS8TXi0j/2AUKW+1wcJ1AHCcgS6mKFYkcutQy9pRc2mFDnIodprGkbBpDQsrNTEESq5lUoAIDUM37AzUyYy6iXaHVrjYqKFGNSkP/+G07Ed364UKi7h+J4U+ThYYdBZBpARUvXEJ/hwvFxsMtBSAakSKgLIatU795NncvtsfM8de+JnN51Qy2Le3RJ0Mbu9/0huGTWPaWg9QxHlSFF9OalSoYd5wuziXnNpTs5zqauDxCMRTSKWiAtDTRkcESKCV/2D8fWre+cvj5i2Z+GrOPDSLLujoAUruDD6UyOBGpWpGAH+Qn7cUNFph3KYVWjk3uK3ij6ZLe6rVgZyHJMjqK7p8QLcxI7GxMURTEagSoQAoqda9YJD/4zESer2PTZdv0N74MfkMw8pCHdIvE9Eoj8vQfQiG7nXbRff2sPeTOTIB3RzbgbA93HnPA+82Y/n02CjyM9NIvnuMqJ9WEJvaOLX6EY8O1KmZyl9vk/a2E+ZmfYFzsvOhgIxrdWHI/GN3yQo0p5X5AKDe+fU350PcySukt+uN/ajLzB5eQFZKPA/P7uLcru0U1BzXzgQdQMnjU2aGfdrIVs3HHzL/Fi0cAoJqHL9AGcln1jDr23MUA1jYYqguh0i1E5/tC+OzBscWo2mmCxRz68QVEroOpU3fpRwOKCQrPYl7V8P4deshbueJW2zVq0cHx55BONZul5IcvoaZSy9Jxbm1DQZqcohUOjP7QBizGxxbhJa5NqCGipIc4uz7XKqNrpWTnF2IGL3nsK2YB9fDZC9albPzk4HUPKZZ+xugJidCpfNsDoQ1tIoiLcy1ASMPLHQVED+6w/G4em8olkcRFvYM5py5TEJBVzrYBWBNBCadbNASZXIj7H7L2nEwQ18JVO2Hse74sEaFZeipAzEPyK0ECx0bnOV0KYs/S35bK6zbGKKhAEUZt/5nkvifXXxVRhPaZzKhKOAycxPLexmirJBVGyysyi9HTDWZV9azaMfdhsdKSqVhGNldRFzxvIkNjZBIqGry+lBFfrkYqjO5sn4Rj5uVRmyt7SIUFZ/6ak7zyTvE3dRh2Fl70l+9EldTNcTJMRxtofe+uqSSSipJPPA5a8IbF+ZyH5AUF1BWKUJLy5PWGjmk38hCsbsLttaqaFXlcONeUy03zYvN+WoO7nT/cStdLKE4LZm05EpAGV1rTRq+/FTE5aO38HVqT5uxvTg1twRbax3IOMPtFiZpV1RUAGlcnDqb240LC2KfYyxNcZ6snEowMsY4ADgJcbM9mA+yXKqaC3pz56E5FCCuBNKO8vPybTR2opQlSYAiissqQVcNayMd8jJPUqDTD1NbN6p1IO+uLIRpt5xR3w/CjGIePUglrRJQ1sdcS61ho6VfE3FrBHaenfHtCEdK+2KiB1lnfn1sKYzEPdZsWS0Bs+W8t3kQJirKFNVeDppjO8Aujr39B5e836N9UB9sba2x7zqetl1HEb8riG1r/6HXzsLGs/6iNZYDP8bdrwPmNi60H92O9sPGEDahNxeSgeIKKoGM4+9w9I/GI8wlt8XvXzwifOpI5t8EvZEhbBrriqpyGQU118OiYiqroSTuIN+vOUVOg2PF5CXKVMattUwasQvXXsMY0sMTRxt7Or7mgk/ga4QtnMjCc8Utno5XSxonJ7/FwmjQH7WCzWPaoqxUSkGNVikoobIaiu/uY9naM41C4WJy79fGhamqKHu+0O9jSKgWVzdZUlBSSTXF3N23jLVnGgXoxbnczwR0pLbLKyi/oLyhcK4nTcTb2Ylelh6o2+iikH2Vc3er/v7Q+pSWU1kNGZe/Y/GuRuF+SkiNAyrzKSmvRlHZHhvNCnKuJFHk6o6pbWt0FYtISsppquX/l7yA305M1KojRHUeh0uvjxm2YRq7ykCcGE9WcQDOlm3RvbOTU00JDdViKipFaJq64cYRIgFEWphpq9Ew5+tFISYxPoviAGcs2+pyZ+eppnuR2W5k48t4y62sb8bKGSJlDYyA9KYKa5ac8LfAs38xJtpiUs+fbLruUyi+nkLu6DaYOnYkN2Q9TZpVkUZBiTwWhg4UqOZy+3wUyuP8MTetQFSdTdL5pg5qmpeR80VrB9qKqA07tncyBfLIj5YAb2BuqUD+lS9YPuMXaX3VYIbvDH78ObMmt6jdh7Q1S8XMCLLO/NJoHZu/Jyklh2oPY0z9Czi+POLvD2gmSiqGTe6PuB5PT2cnnEeGcOVi8BMSqlswD7UdqqIq86Y15BjZWdPB2Am74rOcfoIOyc8vhjYGmOtqUhBzgOTyWfiYO1AgB3kpu6SV+rhiplBA5BJ39h2VdqT4xkE+Hv+4Vbd3XsPf0x+nYeM4n+FEK7K4euT4k6yH5ClcvtGDoZ496Tlagx2hRc22XUoRBZdWEH5pBeEALhv4YEVPbNu/D8yoV681rYNEIAs7Ko5sizGQlylNwkt5lAPOhrTydIeT0vNBu7cDBkDGwxa6qgFK75O08xOSZK4NozmXGR/ggN0gERdWS+ByIrkfutPKdhAVNxu/hNEUrfHq64nS3VNcTCh9/OeuR86v27nY/2t6t3+D8W4nWBYphpx7pOZV4mJij03RSsLuPcWLVZHNrcNruXVYumk+dg1r3nTEJcAezt2srSaSV0Be9n89V2sMm0oHIp+i8mpQ1sTg79x5Cipo/O1zrzEd+7dDPjqMi4lPv1dk//Irl/rOo4fXW4xrE84PMVWQfZe0fDHOJg5Y565mc1JTQqOEsopqlFvZ0V4fkrIBlDHT13xxydKNbb2bRr7YGRMHa3JXb6ZJs2psb+3KiG4azAtvxsIZiqoYqkLTMfmaJSfMcerhi7yBErkxjZeYaAa375NZ7o+TlRc69w7TtFmPyC0So65rS2vVMtJvXSUnYDhtrTSQExXy6HpL74r/XV7MOVS4i58u9Gd5LxcCP3Jj19JIKNzDpvBeLArswqyd2xgaGcm9rHJEaq1pXXSIGSvOQ95ezscFYu/cg6836XIhIgMN58446De8IynYBvLeQHvUABSt0ABEOi4EBwcDVTw4uZIjGm8xoZMRhgaKIAemPYMJ9swjYudmTtX7PQv3bCK81yICu8xi57ahREbeI6tchFrr1hQdmsGK89Sz3ZHha37D8/p1YrLKQV4PM/37bJi1qS5pPe9P7qb0x9ImiJXrjLkak0W5vDZqOb/xzaaaWjVLTnSi7WB5DKuyOd1giQkVfN6aQCdDAPmGY+gA1XkR7Nx8ivTbP7Hvegcmeo5g/W5vIiIiSS0EeT1TNKK+Y97OdCg+T3reFNw1dNEojONe+W1U8zXpZVNFdW4iiTSfl5HzhZwD/tsPY3klFqz8cXFSpDr9JjfPAORTUQHabhMZOrMd2RITLDu6oV6cDzoOeH+zDLkfp8tyompyixxxn2mMCXncPPuUm/sTyP9xHZHe8/EYtIcp7W8Rd/M+JRJQMzMiM+RN/mpp3knYCZKneOPiPpkPl3ck5n42qJggd2ckYfskVG78nHPevxFgN5j3t3bgTsRlsvNBzbkVUHMjbMk87CL+/ld4eLrSZ/thzK7EUiJRQ0v+Oge+Ww/c49xvV2g73Rv/1RHYRd6UJaTro29whxNzFpEPxKXmgEgdbe1i0u9ISDPNQWWQAyIKSIqXmVVYTgVaOLy9h15OidCqHc5umpTmgZb9eII+VuD0iu1SL8JfXxOT1IUuDkMJNDKF3EvE/U3E+/byk3TaPAi7PiswD32Ph820XbqwrTNld6W/HSommLq7YQhkpZ58rB/LN68wwuMsj3CgbScnlCQZ3DuwH4C0TcdI8BmFTZ+tvK16XJZwb45cWQJRO1oW0jaesIcAuyJSZC8AKLZywc7NEMgiq+ZNhOTZXLjchdd9hvLBXu/a8wFtazQTP+NgaMM/QPPhYxnTzRS5DAOyF2wh9qkRwCusPxKDz1hXOo9+jVbTdpHBFTbtj8DzAy9GrtyB9+0IYpILqVLUxUQlmhVf/0YyYDHsKz71U+Th/SwqAEVda1zcbFClgHt3UqXNx0aTVhSIlcNg5n+rx418I1xs1SkuBz0zPyZNeMD3a8OQ+pAeEJGUw+uOZnT7/FvkbqShYGSF4o1lzPut5o/sFufvZtHXyprAxeswuRJDRoUiumqPCP1mS23oG8By5FhGdzFG1EGPjPlbiX+qh/Aia4/ewXtMW/zeG8iWT/eRzUU2HrxF+/fbMWrtDvyiIohJKaJKSQ8TpUi+X7CbdMI5HjmaDt08GL96JW6yhHsP07q/VAD0O/P2mx0xkAdohb4ioGrG4OBgegO5N7cQmuLLhEBbDKzUkUMRXbd3CA4uIPFYKPui66mcixs5eKs977cbxdodfkRFxJBSVIWSnglKkd+zYHc61LO966xf2DzwGrceFlGFOkamZRxf+B0na5PWz3Az8T08XLyZuvY7ukQ+pKhKHS3JJVYsP1m7jETNkhPmPTujrFpEfKMlJuwHTiDQVqqINRqMoQLKEjkWuo/o7J1sO1yNhIIAACAASURBVBvA3D7+zNm2jaG3bhKfVQnqRrTO28381Vcp5Sbx2RWILLTRqc7lcs59MrOgt1NrlIpTSXks2b4mJ66UC/NGM+d0SxXhv5cXJODreb/8x/PeL5PZmF7Bze8/4Yvcz/iwnzv2Pn1wFgESMYU3IoHzIMngly9+oPXiDwmw6UAfCzElD8+w/rItwb3qHn2UXbrRL6jeMgwAJp4EBXkClUTnruSMQU+C6q1FYe8fhH3VI7SuNRRfVNzk+0++IPezD+nnbo9PH2ekZhVSYxY0tN3Kpw/2IoBqyjPlsIM68SWO4rslv6D76SBcbTrTx15ar/jm3fq1apec8DRuhSTvcu0SE1I06NwzqMFSGrVjAKoeaXFt8ynSJVns+XwSxdNnM9rHlnbdrfACqC4lqcgCqd+tksziEhScTTGIPsF5ytEuqEDXQQdxfAYvOpDWYtLOc620A90HtJW9nn+Jwwtr3nRczImdfui/7kTbXkNAXMyjyB1cLB/CQB89rL17kn8Smeioyy2ya6MOuZeIefw++/eUbuXA+BIK5n6Ou4MrXgPbAVBdkc41a2j5++0bOLi4DarB/TB38aerK4CYDKUgwvbtByI4N34EOTMX0qWTI238h0i/8SUuJz8tgazMls/D7S8/w+D7r+lo3QavgW0BqHqkTBTrSQAqj77Bz2UhDBzXHWs3f0zbA1RTkVbNDZAKmPRCirHByDSB6DDAL4cS3TbokUJhlOzOtmUGpzw30q1Ne3yC2lNV+Ig7e7dR2X8KHvp2ePgHEVMjvrjHubN36fS2E3aakHdpbxMvAzSi1vvVhe6T7NmyOq55tptZY2ztjr5jO1lD1VSU5PLwzGb+XNJYkD/i1p8lOA0fjKNsqYmbv0ySvukIkPwFv32tJl1qwn8INogpz7zL6ZAhDd90bAbaZlaYt9PHtr1sh6SS0qwkru6YxfFaIVrEndl9+VX2xQMn/yFSL5KkkkcSZ2g0a4/uPiTLzxjN3EekNSMqVOv9ch3MBP8jzD9dzKPdc/i07GM+ecMPB7du2LQXSecsqRhdpKe8gZk5lm2saetas8SEmNK8VK7v2cSyvTKPd8WfrNjgjt7Y7jh06INxQQInVpyg9ZRxtNKyoZO/H6a14guufB/CQbMZBLbpQF9zqK4o4UFOTY81db5hq+5MhrpZ06mvPSKgOu8md4y3kFAvZp0W+5Bs39ao5TwitRmh2Vrvl/tQJvj8ycKLpaTtmMWnpVOYOtwXW4/u2HhK56H8fj5aQDrlhH/7DVaanzPEzRn/wDaUZ0Xy65/w+pt2dY2bd6ZnYP1lGABlR3oGSTPO0tSPERrdjf5B7WrzNU29+mJKEVFZ+xqKL9LYMetTSqdMZbivLR7dbZCaVc79fKlVQEPb3bpj0U7q9hYXxpKoQz3xlc0vi9Zg9tUYfK09CDBvJ62XVM4O6sRX7ZITFsZQHle3xIQMl279CWrXMNtUOgagKIqsffuILi3n8pKPmJMzh8l9XHDw6Udb2T0/+/o1NLlKKZCdX4xY3xTTtDtcTwe5rCJUdS1RzIrm/mOvtbbBQlcRylNJSfz/I7wARBYWFv9bqzoK/EPI1qW6t4P542f8ffXmYreKsWsHoHRuHD/ObbnnS+DlYvDpeSb0U+b6DC+O/MPvevitTyTALoGwHgGcE656AgL/AYJYun8KnuUXG33m6L/Pv/DD2gICzUTVG//PemIiTiBygyC8/m0ounxH/+6miO+dED5RKiAg0HL0dVGVF1Gem8L/M8fXS8sbFBB4SfTAY8Y4HC3NaWVtjK5SBYl7PuHcc60JJPDC8JpCryG9aWVqjLmZHkrlCYQtnfGUhVUFBAQEnoC5dAmK3NRLz/eFg38hgvgS+I/RDZeeXpiWllOUfIWTWz/mfPj/ysow/wE8B9LJy5yy8iLSLm/n3NJZxD/38uQCAgL/k+RFcf6PUvLPxtHChS/+9Qg5XwICAgICAgICrxAh50tAQEBAQEBA4BUiiC8BAQEBAQEBgVeIIL4EBAQEBAQEBF4hgvgSEBAQEBAQEHiF/AvFlzqDlv5O2PFf+dL38VIFxw9YuWs/2xYPx+jVG/cPIpuXsDDZv+P82tQECQgICLwCus77jZO116Mw9i4JpMnPOv5n6M6CXScJ27OY3vKPl5q+/T07Duwk5F1LRK/euH8Q2bzU/tZ7WNzUBAm0iGdYakKdQUu3MsWz/sd+JIhLMrjzx0q+WH3hpa7po92vI876mog0/OjJTra+xL6ahdZwvvq2O4b3f2fykmOPlxtMY9POvqiEz2Xk/JpvCsnm0KOM8Lkjmd+sj12XExX+BwdS1JA3dKe7j9kLHITA36OH7dRNeNsUEPP9KK4nNF1LznI8vWaMx9lKF01leZCIKU6/R8SvEzlx6AkHPQHlbssZOMKB0rOfcXj7rRcwhleBKe2WH2Ogq3q9fRLExencPfAFB386Qfk/Ztt/la7M++0ruhjWv+VXUZ6dQNj6L1h2POOpH9h+WcSd+ZMDuVqItJ3p3tXu6ZWd32fxZC/kb//MzNVXeeonKZ9IdxbsmkNn/frzIKY8K54Ta+fwfVj2S52H/r6utNKQx9C7Pwqb1lD5EvtqFgNnsaa/OSnHPmLB703M6IR1nBxuwF+LhzPjWM1CDbI5lPuLxcNncKxZ6zfc5fTRg2Rpgq5LAH42L3AM/8M8+zpf4lSuHblKCoC8Ps5dvHEZ+iXLRB8wblXSCzOwMdk/rmCX8QdY3Q9l90vrpQUomWPl6IhJlfFL7khM/OH1hADqg5biJ4ivV4wqWpZ22Nrn80i36Roi8894ffmHOGlWkpNwncu3UxGZeeLs7kiHEZ9z79AHLfqwuYKxLRaO9hTcN3whI3illKcQ8edl6YOYgglWXTrg/MZKlCSBbN/QMhEqICPrFocv3Jeud6Rlh6+vM/1mfI/CozEsinw2OfM8pJ3cyPKTQNd5+HS1Q/FplQ0ssHZ0RLGoNfLwjOJLRkYkBy8lSoWWtgNdfJ0InP0DCimj+Tb25cmvn5Ztw2q6C5nbtvzzwgvA1BIHR3sUo1+2Hy6F4z+HcBzovsAXP5t/YcDsP8iziy9JHlEhIYTKNkXbJ7Fu81CsvIbhxLJ6n5R+wVREsPbziS+rdQGBZ8SajjPfxUmziDuhg9i5pU5ghLkMxTh3Dy/vkeRfSFUWiSFTiZBtig4u592Vg7Do9AH6Gz4n+x817j9K4X3Wh4RQKNtc+/Zydr/rivvrXihEXno+QfNfoiieVSErawXQujGr2PuOMx5vtEM07/rL837Fb2b2hy+rcYH/NV7YCveSgmTyS0CkrIZ+zU45M4Z9MY/h3hboK8sjEZeQGR/OxhnLOCaLTYp0A5i++EMCbPRRlqskP+EM5wobt27AtE07CbSs21MZHUqfyaH1qkxj085ALIHqjLN8u6aMkdMDsFKXp7o0mfBl41lwqkxm1jC+mDccbwt9lOUliEsyiQ/fyIxlx+pCpiJtvN6bzccDXDHWVkaeasrzUok+tpzZa68hP2gpW6d4Uht8dR5NWNjoGuuIDu1DffOeivoglm6dgqc2UBnLjmnncfxiFB6GilCZR9RvnzBl44u8dTvx5peT8DN6Utz+IWGzF7G7mSuTG8y8yMRuEi5vuYzh6wOx1laAijwSz67gwMKNtXNqMPMiE3sZAxKqyksoeBTNle/e4fIt6Ue7tN77kw/etqXw1FTWfn2gtn2R8zrGruyDbuxGVk/8GYflxxhon8HtOD3auKhTGHOcu8oBeNkoUHr/EDvGTpF+ikLOGJvgn+nbzQF9DQVEVWXkJV/l7IJx3IiX9qk+8hAfjLMh+cBhFP1fw+Yx293pvXU/3iY11qjTeWkinWVblclH+OWdiSRbTqaNnSoViXsI39LQs1MR1VB4/d081JVL0ei7kS/71nSYyoVZnTlxTTY3+oPpNncO7R30UVeEqrJ8Uq+GcmDhD2SXq2M1/wzvdCrnwqzOXHI+wgfv2pN3+F1+3tKB4RumYJPxGz+N+5zs+uOUVFFeXEBW9O8c+Wo+aeUA1nT68Qh97Aq5Mr8jR8/VWKdA65lnGd9Ll/itAWzf2PQ5IslJpKgUWitrolrzuz7VdlklOUvafP4T3TtZoKOpgkLNQ37xbQ6/Hci1fMB+HePX9aD65DruWYyis50WClSSdy+cE/PHEZ1Sr62Zm+nlZ4GOsjwScTGPbv3GwVk1Y2zO+SCz3Wg0Pb/6CBcLHTRUFWQ5QBJKbq1h1ZQllMnmRs1/GUEf9sLGUB0FqijLSyF69yT++PXWc6/YXfYgj2JASUW/zpuk04/Pvh2Nv3UrVBWgqjybpAs7mLNgD+k1qkSlA5O+mUIPB3201JRrE38lSUd4//1lJFZL87m+6qLIte9G8tlh6eQ0te9vGbuGY2861t1ovKbxR9g02UYeV1vS1hMoTcqjSAJKqgbIgXRedQYwY8kouloZoqIA4vIsHpzbzuff7CNbNg+q3h/zXXBf7FqpoCAu4uH5k6Q91voE1p0cjn0951LC730Yu7Ke72vCOk4Ot0cE5F/9jm/SgpjTzx5NBQkVjy6xctxsDhdJq+oMmMGSUV2xMlRBATHlWQ84t/1zvtlXL2Sq6sxbcz5laDtTdFQUQFJBwaO7hP84k5BzxXRfsIs5nfVr885sXvuTsNdqreP3PmNZ2VzXXPcF7JrTGX0RkHiQDw+14stxHTBWlkNcFMvBTyey8iV6E/+XeWHiS6RlhrYaSLKyiQdAnaDFK5jgpUlxahSnrj6gytidTl79mbqsjNhxq0hCkzfmfkI/exUKk/4iPCIDDWdf/OwVQXb5klLEhRMHqDIEFG3x7dcWrcYGFF3gxAFwdu+Oj4kRg0boI4o+weEKe7p2tsF/7HSOnVrAFfUgFq+YgJdmMalRp7j6oApj90549Z/KsrJYWchUCY+pP/B1oCVy2fe4/GcM2fLGuHfyot2w2cxNHsKcqHD+OJCCmswe7dRrHLlac5Wv4sH1FkxeeRThfxwgw9WXfk56uE3sS+vMcxyK1KODnzuuw6bx9saPX2B+Wzq3LpygVPNJ7uM87pS0sEmFVriP6EZO3CnOpmli1aUD1gGfM7ggktCVVwEourCfM6WtQF4LXVsXrO070PubvUgm9ONKChTs3UXCgDk4t3uLNhwgRta0Ti8nDEVlJF7dQHHNJUfZGI3kZYTJf0JPh46o7ljDNdXJeJl3wMkTkq+pYz59F8P7miLJuMuNc7cp0XbFxdOP/gvXUTT6HeJqr/kqWPXsRW5sfdunEBD1K7/vT+Hesb1U6Cmh274nrsZl3DsdRqrsYlqdfYpcQLmNBVoKVRQ8vMDffezo7+ahplze2BvPDq0piwknMk522696RNKDGrN70uO7pXQ2l5AVe46bd/NRc/Kjrd8khs9MZv3cXRQWlSORU0JJC1TMdFGVyCE2sAUdJ3Q0qymNjpZ5oWrGCSINc4yd2mDT8V3e/E7Chslfk899Io/G4B3sgWPgaI6eq3mysMPJzhBRWTzxB1MB0ybHLNKzQkMVqlLSyW2m7VUoYBj8C6/1MqcqK5HoUzfIk827SD6FRw2SS+Vp3XkMqllxXDuYjIprN1ztezJg7lKyxn1KBuqYT9/GoB6miDKjuXzxvrROuzEMX1TC5qnL6uWqPu18KAW59nRb9AU+FtXkJNzgyu2Hsjw2eUSPrtZeuRQ6LGfkzEBMJFnEnw8ntUAXM58OtH93I9WPunIk7Pm+FKxioYM6kJd7T+b16spXaz7Bv1UFGTHnOHGvGAOXTnTsPpFl4jjGLIpEjApvf/sVQ1yVKUi+xfmTD8iV3VuVi6JJq34ukx7n6gkOacQiJ8sLk39wgbCILKTdFHM3+vn9daqWOmiIIDP3rqzd7sxfH4yffhkZt89wPKEMA5dOdOrxET+IYxj9bSwSBjBvxiCcNEtJuX6c68lK2HfpRlsloKJ+639x8oAKMSLAohMDPVo/bsBfJzmgko5rgB82ev1421aVuFMHKbToShdHH8bM7MYfs8Op7j6f9cF+6JdlcPvMcRLKDHDp1IkeH/2AOKYmZGrLhyFLGGavRF7CNY7ffoTEwIVOnVwImrGQR4ODOXP6KAezNGvtyYw8yKXEGoGUzuWWqPq7pzl6MIu2nQbioW3LR4NNKLh8mFvq7eni6cjgqRNY+8G/IL/t/yHPLr5EOrgEBxMMtTlfdgqFRJ3bQzqA7igC3XWojN/LR+NWyZ78VenxzRZme7kzwAhWl79FNyd1qh6Fs+Td+ZwHEG1n0rrNDLWu31kZF7eFcBHAYBruTYmvsotsC4lk0FI/fCxt0E+XJbiLzJDfvIW+Rka0AeJGBeKuU0n83o/qctNUe/DNltl4uQ/AiNWkaw7l3W5WKOZc5odRMzksu5qKdH3p2SaK4xcADrM+pJ49eVGEhDTX1dUIcTyH14dweZo7/dpaYFW9jbGTN5KOJkO/38okV0NsfIFmJeY3hzxundjPC03hFkHBX1+xQeaxqgkzGbsNQ5+rZANlpxcTfrruEO3xJ/jgDVvavObKlVW3IO9XrkWOx7mLE06DVInZXwrY4tSmNQrlaTwMr3dzF+eQEraBu73fp6dVBvEbdyHnPg5q0qM0h+DV0Qz5jDPsrBVaCtyaGsa4fs7Yd4a4U3W2lN9ezcbPf6IK0Hh0hA/edUDf0QcII2HLVBIwpd3y7ri2LiHjj6mEX2s4fHVdVRSQUFIicxeqdMBlzEgMVKSb1dmnuPbLQYqbMQ815eojD+HeoRUlSdsIDwl7bMqVu32As4WIzDOzZGIFkGtP0c876ew0EGt2kfYwh2J5G9T0TTE3UiH7QSZK2pZoG6qhQBVFWfGy1rJk46zBFp+1h+llG4CbzdecTYDSYxuIG7kaT8cBtFUO5XY5YPom5sYKVKTc5F5mPePkDbAK/h5dqM35MpPL43b4Boqbafs9WmNmqY9CdR7R215j3/68ps89QHoCXubQ6Pe4L2ur4OeddDHzwtEGMjKl54NSSSzHpgZyKQVQ6U/lptV4tQnEzWYZZ+s5LJ92PqDvj6GeAtW5Vzg1dTi3H/PUA+hh93pnTOUyubq4TmiJHJfz7soBWHXtD2F7njKeJtC0ZnxwcIOcL7WKeP7cfU+6743X6NBKntQTs2RCC6Ads7ctpUfbQGzlI4mt6oi9kSqisrscnTGNdakv2atxcw8rblKXF5Z5kdUhh5/vpQsNWyYHBzfI+VIui+PijiTpvrdfo4OBiOQ/p8mEFoAnX/66hG5tB2Mp+pbEt3rjqiUi98oKxsw4Jp2/dWNYtfcdnBuIr2vsXC77Y5+wrmnxdW0ny691Z4GvHzY2xpTWJLirVvLToSHYtnZFnnDefK0DBqJk/pxWLzfN80t+XdKNtoMtEX2biGTAB/SxU6MwYi2jP9lZG2JW9e5Fp7gThIuB4z8TcrzOnqL4VYQ029XViJTj/BxynAnrBuJhb4dK+AeMW5mEhN5o7fkcbwNLusvTzMR8gZbw7OJLwQTPoCA8a7ar84jetZDPQtMBUG5rio4iKNkOYVPYkIbHVonRtwVi1VFSlFCaGl2nKyQFJOe31O3SiOps7p6WtShJZsnoAJZIrcLPVAdFlLAdsonHzdLHFsh1d8ZIXULJ3Wu1wgtAknteJrxeJmIe3twuFbAUsmfqIFp4if6HqCArpi5UKInbQWrmIMxaO2ACZKOAWsdp+L81AGtLPdTkQVItjwJyKKrVKKZikn69SErnIGx7TUV9/0KKDYMwN1ahIvkK0S3J09bzQFsL5BW6MvKPxmnuJajp19+upjg7vjYMJBFXtzhvRJxbihg51HXNpTs0/XDuNwQnTelmZbIKCb8cpLhZ89A81BxboYECCl2XMjtsaaMhaqMOlNx6RDEOqBv5YKinRObNKPTbmWFkqYsKlWQkyeKHcsZYvPkN3j1cMTFQRQGollMAOWWUa14wKDvGX389xCOwLa4jTbi9ORX1ru1ppVJBWsTWhnlcyqa4B9X7AxPnELP9I/btTG227ZDC3bNRZDl2wm3KDZzH5ZGZfI/7p0O5uPcQxY3u4OVp16XCC6A6kpj4bLpYtKKVO3Bdej5UpseTXOOgLrtEwoM8vFq3pnV7qFOef3M+ZO4k9vZb2Hh3ZOi+e/TPzSTt3k1uH1xA5PkU2XGtaG2gCQoKeM2JwWtOoyFqPcMLOgauBAa51m0XJXD4u2msipP26Gypj4pIhEmvEI71anRsni52ChBbdYaT1x7i2ceREVuPMTg/k9T7cZw/tpHf/kyi+L8QYWrlxsAgt7rtwngOLp3KmiSp8a6W+ighwqzPGk72aXRsri4OcpCooYwSFSTEhtWFf0uTyCuSPN8CTPnxnD0pa7F0FeN6rJIVuGKprwQiM/qsOcnjZjkgRyLO7qZoiiq4E7mX+pq+9NJxwp/DrOaRyu1QmYDlGLOGNvH2vsAL49nFV2U0oX0mE4oCLjM3sbyXIcoKWbUu96r8csRUk3llPYt23G14rKSUtFhAQ7oprnhOsdUYiYSqJr3ZVeSXi6E6kyvrF/G4WWnE1touQlFR5cXa1UyqKsv+vtJz8WJzvpqDkv/PvDPHH8OqfNIfppImBjn11phrNjwFJbEh3L7Xmz52vfFyWsglq84YaVaSfmpXy5K0xcWIxVB2dxtbNxxtXEhJfJNHPTPlMQ8oEHfA2LQTZoSSnPkDOwf9ALJcqpqHlObOQ3OoLq1ETBn3d47j9KVGheJHZAOSwjzKxXIo6vmgpZJLTlQGGl3sMDTXQ70yj7z7AJrYfLmfN7saIs5LJzU5lyrkUG1tiUYDs8Rk/nqCxID3sOoyjVabF6LnYYpGRRrXTjTyo5ZEsH/AICJQx2ruKUZ10URRLq32Rtcc2wGKd49gzTFXbAd/iKt3O8ws2+EzzouOQ97lyMSh3MzkHyCFiFne3LEZhOvrb+DgaodZu77YdOiF3/WVbPx0OcVUUlEphtJ7nJy9sE4UyqjOfga/8/0DDHo/hEKM+einUF6zUUEpt6RWGOaWVSKhgFu/LGTTjUaekIpM4mQenTNLxnBlS0cChwfRtZ0dNm18edvDjyGv/c4nE1cR92/3ciT8Tp+xK6nElE82bmagpTJKmXX3kJyyCiCfiM1fExrZKI5akcHd2vFVUln8gm2rrn5CiC4HqVkRbP46lMfNuksVNbYroqDyT6wkVo34+SLhAi3gBeR8iYladYSozuNw6fUxwzZMY1cZiBPjySoOwNmyLbp3dnKqKT2hWkxFpQhNUzfcOEIkgEgLM201GuZ8vSjEJMZnURzgjGVbXe7sPNV0LzLbjWx8GW+5lfXNyHUXKWtgBDKPVT0kVVRL5NE1dcOI89LymjGKH5LwDKFEcXYZFcihrv2sy1u8hJwvlDBoEwTIwo72b2BiCJWpyWQBWp0daCVJ49JXPhy7DKCA/sQ/ef91y0bt1OQWudFm2DCSFG3QqUgl4ujVlpmTfYmc/FFYm7ljkjmb2nS850WWP/UYD7eRlDIIC4su+L7nyu6NTSdUN38eahChpNb02hbFt1IoHGGDURtfitcubnp9vZJkSkrlMTd2QqyYTdyFm2i/2xkDIzlElelkXgOwwc6uFdWpx9j+9ngeAMi54rdmFybqjdpLW0NEzFDs3LvQPqAzCpa6VKSEEfPE15uLSVx3iHiv97DpuwjnX0YQXd5M22VICm5xb8tE7m0B0MVxcRgjOrbBzh9u1ltvRtm4PdYgCzu60cZWH8Tp5MYDOTfJLxiKhZ4tZqZIvV8q3thY6EB5Io9akqMJgJjyhD1cXbKHqwCabzF400Lc2gRgx3IiSCctvQCJvSmmbimc3/L3bltFy870cqogIuwqKU+NIqWxcs81un/aia4fvsv6iT+RLYG02AwKJdaYO5uSuHkf/8feeYdVWb5x/HPYU5ZsZG8ZIhtBBcUNlpZpmmalZlmipv4sy1xl7pma5crKXOXeOHEvQCFkCMoSUUA2nMP5/XEOQ8MEc1Xv57q8Ls95n/d97uc57+F83/u+n/sp/AsvVkXuObYuPif3qjszYf1Sujl40VMDFta5XBRQUK4VAaZ4WegjopEYa34ZlVLQ1TZDCf4ypKiiqsPjynOq2LSjs0MFl49cJOcv5yGLBdsu02GMDx0+fptvP1xDMZCVdIfiHlZYtjYlZf1uSho7taSSKjQxdfNFYdNpWa6YuhW6WiJ4yr6AWluT7hTTw8qS1qYprN/dqFV1tlv5jMJJtICm5LqraJgjIv3P3npJDTXoYuLRCtEB+XH5GKU3MzjyBCI7v7wKMEDb/L9VZvZZ8HQS7os3s+pUDxaFu9HzIw82z4mD4q2sORrO1z1D+HTTT/SNiyMlvxKRhjHGJbv43+IYKNxGTHJPHFw7MX2NHqdi89ByDcLR4MG7X8muJ+9EOKABoGyNFiDSdSMqKgqQcPPwEvZoDeR9fxMMWyqDAph3jiLKu5DYTWs50kARFW9dw9Hwr+kZ8imbfupLXFwK+ZUiNIyNKdn1PxbH0MB2J/ot/xXvS5dIzK8ERX0sDG7w/adr6ktpFO7nelYPrGwjWbLSlAuJ+VQq6qBx71e+WvMH3PuV88ldsXF4hSUrzbmQWICWawgB9koUXz7Blgbj07HWAkToukURFSUb17ZGHpArYxPILW2Hu3t/ln1uQXKZPq3M89k2dnET08KeQc4XIjTbfsF78yJIydHEItAXC8VKMi6uIwfQK6tCrNQKt+G/IgnMRdnCG2cHNUpLFNBrM54ewzQ5tkqWE1WbW+Tl9i4hCgZU550ltbm1SyoOcGr3VRyHutP9+0u4xl7kZm4xKBmhp3qcAzO/o3kPvVmkxmZS7u5Im6gY1Nud5W6JImp6ZVyfMom0mkvEfH8Yu8+74jRwKyMDY0m+dotKJQta6QL3ZFeRNGMeSo+eI3egG/ZBU3lvXjdSbhUj0jKk+thbnDwB4rMzOXd1Kz3cUMi4CAAAIABJREFUR/D+pq4kxckS0hUMLFG+8DH7t2fDnWgKi0djo6WP2v3L3C0+j26JDp5WUsSFt2XJ71RSWSlGySqIsK+WkX5XFQN3f6zUyihV0sN+6DpK1Cdx5mQ2cIekbVe407Yddn3HIDISk79v918vMsiZx6kLvbALaYPvcB8Sllxomu3ywrZ+Rnnk5BYDiqiZe2DfWheqbnLn6kP9aPrQfd3vpF7ORMU5mNZWilSknuZqHMA2LpwbgVM3R0Ln70anNuHeWErRld3ENSekrd2X0KnD0LmXIFsAoNgCfee2OOhBVXqKfMVcKRk/bCGpzUich+xjVIj8fkAFLTNV0ucM42pDr52KO4PeHYRvSzEemjnM2vaYp4V9iznSdx2vOnZidMg6vjheBfu+Y29vN/p7f8SGX7pxNTaJ3HIpqobmSE9MZva+SsCVd2eNwrUymVsFUkAVQwcPPEwVID+Hy3LldC45l/Jgd7yGLmaaTQJiO08sFQqR0gLbnp8x8O50fjojV0YJsWTd74KFYy8WTNMi4Z425jYVHJ4wm321Suz4adKKgvF3e5PVS505m3IPqaohyikzmLO1gbtFzYu33h2It34VburZzN7+5/WHD7BrEcf6rCXCuQtjA9cx9XQN7FrJ/ghXXvcdy8aNvYiLvU5euRQ1QwvERycy96AEth7h2mutadvuM9bNjZEn3LtiVPaghDEPf5fXW8tzByxlT11adqOIipICuZxavBHJa6MJMdPHRBUQGRL8cRSuJX+w7ft93GxwuV0r9xPh+jq+YzeysVccsdfzKJeqYWgh5ujEuRyUUG+7Qy8WbW7N5YvXuF0uBR1zzPN+YsLyK/Uia+cfZPR1wLrTfFbpnufa7XKkOtpUbp/B8itS2BBDYm8n3LrMZ5XBea7dVsEhpB3OqhUkntlAdYPxyYamhd2oKKKksnGda2TxRXxsFsVhpji/sowvdRMpbGGObekBxsw9+MDDZpevtjIxQIX4Fa8Stek/UwSlWTyl1Y4NvF8dhvPOj6NYnVvFlflj+LxgAiO7e+IQ2BVXESAVU3w5DogBaR4/fr4A41kjCbP1paulmLJbx/nurB1R4fUhP1W3jnSPbFDWAcDMm8hIb6CahIIlHG/ZmcgGtSgcOkTiILlNi4sPii+qrjB/zOcUTBhJd08HAru6IjOrmFqz4EHbrQO7ypca11B5RwF7qBdf4qvMm/0jeuN7424bRFcHWbvSK9dlraQ5rJw0B+1ZIwmTH6+pLOFO/GbmfraZCkDzofGZeUcS6S0bV2Pii+KNTF/twvx3AnEJjcRFKqaiKA5LnmJOfrOpJPPkCZSDIwjxki3PvxG9mB3ylY4Fq77mlMssAuz8aWcjparwFvHb9qLZ5y2cTVzwDOlOnFx01OUW9XLGBjHZ+7bISkc0CzGFG/qyrmQZPfoH0so7HGtFQCqhNPU2LaCZ4gvurx3OLtO1dA5qhWtYH9l9U36Dcg9Ii4OqmBGs/98ndB7RHxdbH/ztfJHt/lBA7q00yps7DzlfsfPbVvR5JwTzNuGYeQHScjKKgzl54iTUXOfiuNepnLiY9n7WuIXZyNJVJKWk59sC2UAJxSUVqDqaonXlJzIpwuC+BF1bbSpuZ8rDe39wetVOWo3viXVATyyl1RTdPMOJaD1C+rth5NoOtyBnufgC8dlF/HGzHSEudrLSF4f/vBjgQeq9X3adPsdrY28u32mK7VroWlhh4+lZv9RfUkVJXhKnNo/n5EOCvDL9KAmqHQmKaCMrNZF8iEPTxsuFYSm35g5ku/JawoOd8Y9sLSs1cXktOz+d27xdOTTsMLCyx6WNc12JCUllKfmJe4lZMLlOiEpvzWbL6EL5jgdt6+4HSekNik2BhuKr+iYp2YV468Ld249bLwsNvV/+Qz7AIWYhyZIbrBozgZLxUfT2s8In3FE+p5UkZioj80mZYWFpg6eJM161dlaVcS8jhq3LZnNcHpqs2LCQtY6fMyjAnuBelhQk/s7M817MsjJA3zmYsAC1evHFPqYu82LZR6HYB0dgj4TK0uuk1XZZ2+ZrO+aO64adczARrgAS8jSDUd16sL5Z1U1Ss4vwaiEmPze/CfNQ7/0KfPdDrM4sIUOayvKoCdyfEEWkrw1+4U6yeRBXkpAuv5HKf+PzWa1kpSbahhPhUUnO+aUcbzmWV1rWX92xQzciGpR1ADDyiECWcpaGZNlGqjtFEll3g9oQHGEDBSYkrN7HzYaKJHU5URPuMyEqEl8bP8KdZJEHcWUC6XUdNLTdEt9wW5nt0ioKLzmjyJX6em5ZC5i5qiWT+3th6R+OrbxdYrYiXBFD+QYmztCXjdE/HFukVJXdJWnnYiasKW5kfEZ4RETiIR9XY+KLXVNY3uZbPmjvQPsIBxBXUpp0/U/bLdka6CIii5xzL3sM+8UhsrS0/CekWAq8xMjqUumQ8K0rW57atgPa2E07wpt+pRyP6sCxZ1a1V+CJ0OhDr9XzcCvdxup3xz22vMYzxWElw1d2pcWVucwdu/Tx7QUEBJ4hwUzbNJVg9XhWvBqF4PhqHGGfAIGXECU0whYQ6qdPScJ2LgjC6+VCwRT7sZ/gZlhCyqF5L1Z4CQgIvGQYoqEKFOQgOL4ezVMrsiog8HdR6zCZjj3aYWhuTivTFigUxbJn3vxmhwcFngUtsR06C09vWwzNLTHWUeD+lW85+Ev2izZMQEDgpcIYbS0RRUlXuSXE1R6JIL4EXho0/Xvg46VPRVkR6cc3cmL+V9xqtIClwPPHDNvQMFwMyikvTOXC73OIXnfo7xXLFBAQ+PfRMpFTO3cgOX/0b2+h9W9GyPkSEBAQEBAQEHiOCDlfAgICAgICAgLPEUF8CQgICAgICAg8RwTxJSAgICAgICDwHBHEl4CAgICAgIDAc0QQXwICAgICAgICzxGh1MRLhwi9sHFMHxaCg5E2yiKouXOCGW9M4eiLNk1AQEBATvupvzIlxLBua5nCC/MYMGG3UH7kH4s6AR/P4qMwJ4xbqKAAFF2Yz2sTdgklI54BTyC+NOk9ZwOjvRvutFhDZWE2CYdXMG3Zqebtk/bSokrAxzMZ4lTFuSWfsqaRKustx61hU4P9JOupJmFdV0ata36vSq6jmTO+BzYKd0k5vV+2oXd1GrmPP1XgmSLb5DnA9j6J89/i0iM2YlawGi7fy08PbVVFkIopzU0h9pcPOLSrObs3g2rHRUS84Uj5iQns/vnpboP+7DDHa9EBItw1G7wnRVyay/Udn7NzlVAbrPm0Z+qvUwgxbLiDnoTKu2lEf/c5cw/m8SLqBSUf38+OghaIdFwJbW//141d32XWKB8Ur/3ApGUXeLIdZ0KZsXkyQQYN5kFaxf3b1znx/VTmR999IfPw9HFn+Dcf4KUQx8oJy7nSyKDeX3mYfg4P76gIkMZvXd9jSXUjhx6D+bD5TH7FCZXCNM4flG3oXZOZSWNbPAr8fZ7c8yUtIvn4MRKLQKRhirtfW7z6fsm3elMZOOPFbe/89FDCuJUdTo4V5Bg03qLk1CF2SAxB0RDP0EAsq5M5fiyRIiTcvPQkfaoSMCAQW5VSYle9xZiNFX9nAAJPFXVaWNlj51DEbb3GW4haTeC1RSNx1q7mXtolzl7LRmThjaunE75vTCRl1wjSm9Gjkqkdlk4O3L9h+FRG8FypzCJ2/1nZg5iSGdYhvrj2X4KKtCc/f988ESogJz+e3aduyLwQLexp186V7v+bj9Ltt/k67vlvoJdzeDWLDgPtpxLY3h7lv2rc0hIbJyeUS4xRhCcUX3JKb3AyOp57UlAzbI2vrxs9P1uBvlJ/Pjvwb/DRtMTS1hEnhSKMFKAxt9P5wztQSxSBnhthwbaI0k8SHX8PKbmcfaIpcOftjo5oVCXxy5CRrBKKWz9znlx81VSQdWghC+U6S2Q0mCU/vI2LXx9eI4antr/yS0zF6Z9YeBrQ7M2c4EAsKrI4tHAhTy49tfG3MARxAlcE4fUPwwa/SUNx1i7hj3W92bS+XmBEu/XFtGArGS/QuueOJJ/0hWOJlb8U7VzE0CW9sfQfgcH3E7n7Qo37h1J8g+8WLqT2d3HFoEVsGeqO52s+KMWd+XuC5p9E1R1OLl5Irc5Sf3Uuv4xqi3fvwSgdWPOfmIeLmxZxESB0Bu2CbVG4c5LFCw/8jfBgOyxNRHAjgbWC8HouPLWcL2neds5l9MPVQZXagEPDsFxNZSlFd65zcNFnrLgoExbaAxbx87DWVJz6htcnH6y7lshiHKvX9cQ8bSuDh63Ff84GRnsWcuWqFu5tdCm7fohz0vaEOalSceswXw35WiZ4RDr4jZrKmM4uGGkrI6qppDD7CttnTmVdkqxPzd5z2DDag+xd26gJ7oOrrjJUF3Hj9I9M/3IbGbRk3JpN1EcTdeg4PZqO8leS20f5csC0pgsszd7M2TAaj+xdbKsJpo+rLspUU3TjND9O/5JtzfxFFumF8cmskYTZGqCqKEVclkfirrlMXHGRpss1Z9784kOCTRQfcfwW0Z99zZaCpl2t5aTTfNBRytn1ZzF8LQIbHSWoKiT9xGJ2zFxdF4ZuOek0H4SbAlIklWXcv53AuXmDORtfDkCLd/YzYpAdxUfGsmL6jvoxu67kvSVd0UtazbIPfsBx0QEiHPK4lqyPi5smxYkHua4aho+tEuU3drHxvdFkAiiYYhv1A906OmKgpYRIUkFh5gVOzBjG5VRZn5oDdjFimC2ZO3aj3OFVbP9kuyddNmwnwKzWGk2C5qQTJH9VnbmHHwd/QKbVKFzs1alK38rR9Q96dqquPii8HjcP9cdlaHVbzRfdajvM5tSnQRy6KJ8bg1fo+OVk2joaoKkMkooisi+sY8fMBdyt1MR62nEG+1dy6tMgzrjuYcRQBwp3D+WH9b70+340tnm/smrYRO42HKdUQmXpffITfmPPlGnkVALY4P/tHrraF3Numh/7TtZap4TxpBMMD9cjdUMYP69u/B6R3kunpByMVbVRr/1c/9J2eSMFK1wmriLU3xJdbTWUaiMtpdfYPagnF4sAh5UMX9mJmsMrSbF8iyD7FihRTWHKUQ5NG0ZCVoNrTVpLeLAluqqKSMWl3I7/lZ2f1o6xKfeD3HaTIXSe8hFulrpoqSvJ856klMUvZ+no2fLvohIaHeYSOTIcW0NNlJBQUZhFwpYP2ftL/N/Oo6m4WUgpoKJmUO9N0u3OhG+G0MHGCHUlkFTeJePURibP2EpubfhKzZcPvxpNJ0cDWmio1q26kmbs4d1355JeU5vPpczFeQOYsFs2OY2991jeW86BN53qf2h8xrE3epz8RSEXmnOtR1D+Wwwpb3vRVlWrLv+sPiwnpaqsiHtpx/l20kJOyjeK7TX7d8b4iLiypC/jfquXa+rvr2RHPwdy9r/DkG9smL55MkHlcZxXaY2vYRXph05QHBSOu4aY2zHzGPTFQdnnqO7KsGmf0dPdmBYqCkir7nP72j5mfb6CuDLZtUNnbGZyUBH7193Ht78HBqoKiEtucXHjTD79+TpS3mfl4X7URxP9+N/BaP4nf1Vwbhb9/tcMgRU6g82Tgyjav477vv3xMFBFQVzCrYsbmfnpz1xvZoxWPeBj5kV1w95IDSXEVOancmDxJyw4Key++yQ8xYR7BTSUH3Q814XlRBqY2Dnj7OTF69MXoTByBN9mQPHvO4jv446/Rzde42Cdt0y3lyNmIjEZV7bW5zopmaF/dykb4t5hiJsfLX/9gWj1EXQy96BTO4iJUcJ19DymRtqgcDeF0/sTKdB0IMDXn7dmTiF/0CR216kTJWzCulCYfJKdMSq4hgRgHzKUqP57GLOxhFOHdiAxVMTQM5RAy+q68CpATWEsqU8wO0o2YXQpTObkzhhUXEMIsA9haFR/9ozZCIEDed/fEFDGWgsQ6eIWFUUUABJuHl7CtnhAyZXRc8bT3VaRe4lH2J8ms9399S+YW/Uxo1Y3VcnlEn/qEOXaj1rsWsgfZc0doBGeb3TkXvIRTuRoYx3ii03YRF65H8e6JRcAKDm1nePlRqDYAj07N2wcfOny1Tak73fnXBbc37aZtF6TcfUaiAs7SJRfWjfcGUNRBekXvqe09s+rqilamXOJVhxDZ0c/1Dcu56L6KHxa+eLsDZkXNWn1yWb6dTNHmnedyyevUabjjpt3MD1mrqRkyGCS6/7mq2HdOZyCpIa2jybs6i/8tj2LlAPbqNJXQa9tZ9xNK0g5Fk12iezMmrtHKABUXSxpoSTh/q1T5D1mqh43D7XHFU0D8PY1piLxKHHJ8htQcpuMm7Vmd6bTvDkEtZKSn3SSK9eL0HAOpnXwh/SblMl3X26muKQSqYIKKi1AzUIPdakC4pZ2oOuMrnYN5QkJci9U7ThBpNUKU2cXbP2G8uY8Kd+Pmk4RN4jbl0hAVBuceg5h38nahEZ7nO0NEVWkkrozGzBvdMwifWu01EGSlUtBE22XoIRh1I+8Gt4KSX46CUcuUyifd5FiFrcfSC5VxDjobdTzk7m4MxM19464O3Sm15dzyB82njw0afXJT/TuZI7oTgJnT9+QtfF6m35fl7F27NwGuap/dT+Ug0JbOn79OYGWNdxLu8y5a7fkeWyKiG5fqHsIUvJdxIBJPTGT5pMac5Ts+3pYBPrSduhqam63Z090+WPulL9GzVIXTaCwIEXu7WnPlOVj6GBURV7iSQ6llNLSzR+/0A+YK07m7a/jEKPGoG+m0MddlfuZ8cQcvkmB/EdYtSSBnKed4HPhELu0klCQ54Up3jxFdGy+PI+olOsJT8NPpYmKyoP5T3VhOTVDbJxdcHGL5ItlSnw0dC5JUtj16yUGenekdee3UPqt3lvW19USRTK59msGUmxkb5obU7Xwe84PHoFvgBVbV+5F48Oe2LXuRCfFgxyQmDNs/mwGOKlQmHaeg9duo2IdgJ9XP6bPvMegMZuodyaZ0bG3NilndxMjdSCknTP+g8fw3s6RrCo+z+EdaiSK9HALC8ZWlF4XXgUo/eOPJ8q/MuvYG+2Us+yOkeIQ0g5n/8GMeW8nI1cV491vNCFmIsCSFgBadoyKipLnzuVyavFGztUA5sOYP/kVnNSLST5+kES57RGfLkQ8ZjhLkv4d2XbPk6cmvkSmb9DGUpma+4Vky9+rC8vJ0Rm8lJ/edsTvdWe+nfsHlB/j50tv49/ZkXb91diysQLQIcLNHGVxNkmHc6HWjya5R9rRnewO6MMQl1KurNpPoeNbdKr9W68awIBAW5TvnWXBW7VCS4TphytZ28eJ4DDYvafeFknyZt4Zs5EKQDt9Phs+dMfE0RuI4fRPCzmNJr3nBBNo8WB49YmRJLP5nTFslHXI/A0f4m7iiDeQFNSZyAcS983wjozEG4BqEgpk4ks1YACBtqpUpW5j3IdLyQCU9k9izaJwHNu/jvPquTSyLqARCok/tJ2nmsItgvvnp/C93GNVG2Yy9XgdAy5wF6g4Noujx+pP0Rl+iBH97XB51Z1zS+Oh8Bcuxg3HNcQZ597qJG4vB+xwdjFGqTKHW0cb/LiL75EV/T3Xu7xLZ+s8UldvRsFzGNSmR2n3wcfPAsW842yqE1pKxI+NZlh3VxyCIPlIvS2V15axeuIqJIDW7T2MGOqIgVMgEE3a+rGkYY7XolDcjcvI2zuWoxcfHL6mnjpKSCkrk7sL1Xxxe3sALdVkL2vuHuHijzspbcI81B7XHLALT18jyjJ+4ujC6D9NuWrHEbhairhz/FO5WAEU2lLywyaCnCOwYTM5t+5RqmiLhoE5rUzUuHvzDio6VugYaqCEhJL82keJfPk4a7EjcMVuwu3C8LCdzok0KD/wPckDluHt1IvWquu4VgmYv0krUyWqsq6QcqeBcYotsY6ajx7U5XxZKBRy7ej3lDbR9hSMsbAyQKmmkISfXuX37YWN33uA7AY8y64h73BDfq37P2wixMIHJ1vIuyO7H1TKkjgwtidnsgC1HlSvWYaPS088bOdyooHD8q/uBww6YKivRE3BOY6M7ce1RsM0+ti/FoS5wh0uzKoXWiKnRQxd0gvr9j0geutfjKcRtG0YHhX1QM6XRlUq+7ekyN7r/yq+RopkH/pULrQAvPjspzl0at0TO8U4kiR+OJioI6q4zr7/jWNl9jP+0byylcVXqM8Lu3OaZQuf7opI9UF+2KpCcVFmXcJ9XVhOzqtztzOqrTf9vURMvSSFiz9wLiOECDs/hmqvkec4vUobKxW4ncrBjAbzUniTE3s2YdtrBL6KiXy36ypThvTArvbZ1f1tOjpqUBy7giF1Qkudt5duY7B9EN2VNrGpTmMqkLH3PT6WJ1UlfLWViQFG2AUqwoGLbFp0EQhlRrtgbBUeDK8+KQoZe3nv41UyuxK+YuvEAIzsAlHkAL6dIolsmLhv5EFEpIf8RRqSZTLx5f52Rxw1pGTun8D73yQhBTaPWc3aCDuC+nuxdOqlf8lih+fHk4svBTXMO0cR5QuK+vb4ebtgqFJMwt5VyAKIInTa9uOjQV1pbWOIlhJIa0QoI0JVozaDXcy1tWdI7dgXl9ChmGxcTq5mR9zNNRBnX2VX05SEDA03jHRBQdmfcXuiGffAwWq0H8hZrqGk4FbdE2qNWPLMV3TUlBRwq75DJA06zJ83lLB5QG3I0yyBdV1H8fBiSQ03I3SRcO/W5bowljj5BOn54ZibWuMPTRRfz4Iq8hPrQ4XS5I1k3+mNhbEjZsBdlNDwG0eHgb2wsdJHQxGkNYoooYCyRu2HU0rGL6fJCorELnwsmttnUmoYSStTNaoyz5HQnDxt/TbotABFpfYM2PtwmnsZGg8soqih9G5qnTtfKq5p9h8ScUE5YhTQ1Gsle0M7GNfufXDWlr2szlQj7cedlDZpHpqGhpMRWiih1H4On0XPeWiIOmgCZfG3KcURTZNADPVVuHPlKgZeFphY6aFGNXkZ8vihgimWb35FQCd3zFqqowTUKCiBgiqqtQsMKg5w/vwt2vRsjfsAM66tzUazfVuM1KrIid3wYB6XqjmekX0aTNA9En/+iN83ZTfZdsji+omr5Dv54zH6Mq7DCrmTmcKNY+s4vW0XpQ/9glfmXJIJL4CaOBJT7xJiaYSRJ3BJdj9U56aSWRuGrDhD2s1CfIyNMW4L9crzMffDnU0kXRuIbYAffX9PoUfBHXJSrnBt5wziYrLk5xlh3FIblJTwmZyIz+SHhtjClGbT0p2eke71r0vS2D1vHEuTZT26WhmgJhJhFr6QA+EPnVuoh70SJEmOc/jiLby7OvHGhgO8UnSH7BvJxBxYza/7Myj9J/yCqhgS/HEUrlLQsfHDt7UJGhWp/Pbd73LBqY5r79EMjXDHzrgFyoBEpIwIMeotazPYs1hxPIkug11oN8Ka7+emIw31xkpLxO1LO7ncnHnwNEZfBKqe77M9+v2HDmph/IBTrpSijPqwQnVNDc+63GZpUQZ1PVbX0LDHFSM6sQKgNuR54ze6vreEhxdLehrrI6KQ7Mspdd+FrEOp5PWyxrRVO5S49KdzBP6aJxdfIh0cOkTiACAVU15wgxPr5vD1JpksUPH+H0tnhWNWc5+cW5lkVoNI3QgbbdUHLiPNWc+RP7oxzDWQtz2Ws6CFD5Y6EnLPHmiekKgpo7oaqtN3MHH5wxWxaii40ehZ/1Gebs5XU1Dp8AODJ3fAUFJE7q1scsSgoGlMK+0Hb0Fp0kKupXShq30XfJxncsY6CBPtanKPbG5ekra4FLEYKq7/xIbv9z18kLIniR3/BZWJN7kv9sXU3B8L1pF5ZwGbei8AeS6Vt7xdU+ehKdSUVyOmghubhnHszEMHxbe5C0iLC6kUK6CsH0gLtQLuXc1DK8Qew1b6aFYXUngDQBvbL7bzZntDxIW5ZGcWIEEBdWMrtB4wS8ydXw6RHvYO1iHjMFo7E/025mhV5XDx0EN+1LJYtvfqTSyaWH95hLdCtFFWyKkTNE2xHaB0yxssP+CO3SsjcQ/wwsLKi8BhPvj1GcqeD/py5Q4vgCxiPw3gD9veuL/WH0d3eyy8umHrG07wpSWsHr+IUqqpqhZDeQqHP5vJw39+au4+gd/5xg56v7uQYkz5aNU6XrVVQ6WgrO7HsKCiGin3if9xJmsuP/RTWHWH5CrZf4/Pfptz6/3o2S+S9l722Lq0Y1CbYPq8+htjPlhK8su+YFDThuAIeUhQXElh1lk2zZ3Oennoy27MMhZGWENJLjczM6kGVFta00LjwcuUr91H/Csu+Pi+Q4DCF5QE2aAvukPMgSvNe/gqraJKCrmHx7Noz8OTd5+b/4UVAALN5snFl+Q2R78cwLRHhONadHTEXJTHia/6M+UYgAjjd5byw6AWD7Us5vcd8fRx98O7XzccK2wxlORwYE9c8+wpvURWwRBczJ3wK1jId09raZmCKuo6j2/2PCi7mkdhPwf0WnlhRYws7OgQgnVLEN9K52yTr/QMcr5QoaVLJCAPOzr0x8wQqrMzyQdaBDliJM3hzJRADpwFUMLgg/28+9rDddJqc4s8cHn9dTKUbdGtyiZ234XmmXP3DPeK3sLGwhOzO59xIevxpzQJef7Un7j1ExlZvbG0DKHdO+5sWd14QnXT56EWESoajde2KI3PovgNW0xc2lG6Ylbj9fXKMikrV6SVqTNi5bskn7qCztAgWpooIKrO5c5FAFvs7Y2oyT7Az4OGcxNAwZ3g5Zsx03zoejnLiU3si71nCG3DglCy0qMqK5rERz4plZK+chepPu9g2+1rXH98g4TKJtouR3o/npT1H5CyHkAPp1nRvOHngn0HuNJgWbWqaVtsQB529MDFzgDEuRSkAveuUHS/L5b6dliYI/N+qQVga6kLlencbnZpGDGVaVu5MHsrFwC0B/LKmpl4uIRhzyJiySUn9z5SB3PMPbKIWf94t62yVRDhzlXERl8g6y/dCDks2XqR0PH+tB85lO+2akIcAAAgAElEQVQ+WMVdKeQk5VEstaGVqznpa3+n8C8UREXuObYuPocs8OnMhPVL6ebgRU8NWFgXRlVAQbnWbWOKl4U+IhqJseaXUSkFXW0zlOAvQ4oqqjo86pGvro1NOzo7VHD5yEVyGpuHgnPM6ve/R4bjwp2tUCq6wLzXJrBblg1Pv/kbGfGnkkG7+PXSQLw7evJab0uy7U0Q3Ylh79lmxkHOZXG3pi1mdu0pj13AU0t/UlFDt7FSXi+A2Nv3kLqZYOZlj+iALOxo3tkOIxHcvhXzn1hh+rR5ZhXuJaVVVCtY0nboN0z0ykXR1B0fFw1KixXQcR3ItJEqfLv8CLlA+bGfufS2P51cIvigyhRJ/lFONFN7Ib7Gqt8v4fuBN298t4WA2FjisotBUR9zravMm7qpmYVKS4m+dJP3vN3xeX8DC7wvkFEsQsOghgufL+IAoFabKK9oSEtlUMCczlFR+DZMkn+KVJ75hdNpPkTaRTJvmR4n5Qn35hSTcHxzMzyFzyDnCxGabb/gvXkRpORoYhHoi4ViJRkX15ED6JVVIVZqhdvwX5EE5qJs4Y2zgxqlJQrotRlPj2GaHFsly4mqzS3ycnuXEAUDqvPOktrceGrFAU7tvorjUHe6f38J19iL3MwtBiUj9FSPc2DmdzRvjU4WqbGZlLs70iYqBvV2Z7lbooiaXhnXp0wireYSMd8fxu7zrjgN3MrIwFiSr92iUsmCVrrAPdlVJM2Yh9Kj58gd6IZ90FTem9eNlFvFiLQMqT72FidPgPjsTM5d3UoP9xG8v6krSXGyhHQFA0uUL3zM/u3ZcCeawuLR2Gjpo3b/MneLz6NbooOnlRRx4W1Z8juVVFaKUbIKIuyrZaTfVcXA3R8rtTJKlfSwH7qOEvVJnDmZDdwhadsV7rRth13fMYiMxOTv2/3Xiwxy5nHqQi/sQtrgO9yHhCUXmma7vLCtn1EeObnFgCJq5h7Yt9aFqpvcufpQP5o+dF/3O6mXM1FxDqa1lSIVqae5GgewjQvnRuDUzZHQ+bvRqU24N5ZSdGU3cc0JaWv3JXTqMHTuJcgWACi2QN+5LQ56UJWeQg4ApWT8sIWkNiNxHrKPUSHy+wEVtMxUSZ8zjKsNvXYq7gx6dxC+LcV4aOYwa9tjnhb2LeZI33W86tiJ0SHr+OJ4Fez7jr293ejv/REbfunG1dgkcsulqBqaIz0xmdn7KgFX3p01CtfKZG4VSAFVDB088DBVgPwcLsuV07nkXMqD3fEauphpNgmI7TyxVChESgtse37GwLvT+emMXBklxJJ1vwsWjr1YME2LhHvamNtUcHjCbPbVKrHjp0krCsbf7U1WL3XmbMo9pKqGKKfMYM7WBgsP1Lx4692BeOtX4aaezeztOc34YGSUVFaBjhtvfjMJx0wpLVv74qldTpFUF7u+MxitsJzF+24iBS7+cI6MkAjswydiZCmi4PxJWYJ5c8hawa9nAxkfFMGSrW2Ij7vCrUIp6JhjmLGUyWszmpnGcIQzN0YT6OPO4A2LcT2bRqFUDUOlP5gyVxZarUuU1zNBFRAZBvNxlCvShknyT5H4tUe5HjgApy6zWaF+VJ5wb41iRSqnNl7+0/i6fLWViQEqxK94lahNgjRrjGcmvgpWf8t298lEOPrS1VJK9f0sLv22D6XIwXgbORPYPoT9cvGF+Bprz6TSsa8LTki4ffTwE9TKkpK/dSIfln7CZ0MCsfMKxdoHoIbyjBIsodlV4os3fskCi1mM7GCNR2gknoC08hZiPzhwDrT+lCjvQIdIBxomyT9VxAksGj8H5VkjCXMMJdJFVmoifvNcJjZ5peOzopLMkydQDo4gxEu2PP9G9GJ2yFc6Fqz6mlMuswiw86edjZSqwlvEb9uLZp+3cDZxwTOkO3Fy0VGXW9TLGRvEZO/bIisd0SzEFG7oy7qSZfToH0gr73CsFQGphNLU27SAZoovuL92OLtM19I5qBWuYX0QAdLyG5R7QFocVMWMYP3/PqHziP642Prgb+cLSBGXFZB7K43y5s5Dzlfs/LYVfd4JwbxNOGZegLScjOJgTp44CTXXuTjudSonLqa9nzVuYTayXA5JKen5tkA2UEJxSQWqjqZoXfmJTIowuC9B11abituZ8vDeH5xetZNW43tiHdATS2k1RTfPcCJaj5D+bhi5tsMtyFkuvkB8dhF/3GxHiIudrPTF4T8vBniQeu+XXafP8drYm8t3mmK7FroWVth4etYvv5dUUZKXxKnN4zn5kCCvTD9KgmpHgiLayEpNJB/i0LTxcmFYyq25A9muvJbwYGf8I1vLSk1cXsvOT+c2b1cODTsMrOxxaeNcV2JCUllKfuJeYhZMrhOi0luz2TK6UL7jQdu6+0FSeoNiU6Ch+Kq+SUp2Id66cPf249bLQkPvl/+QD3CIWUiy5AarxkygZHwUvf2s8Al3lM9pJYmZysh8UmZYWNrgaeKMV62dVWXcy4hh67LZHJeHJis2LGSt4+cMCrAnuJclBYm/M/O8F7OsDNB3DiYsQK1efLGPqcu8WPZRKPbBEdgjobL0Omm1Xda2+dqOueO6YeccTIQrgIQ8zWBUtx6sb1Z1k9TsIrxaiMnPzW/Op1LHhkW/4jOzH65tw4loK6YkN57ft1fQ9b1ADBz8ad/xCEv33ZR5prNWcDypC4NdXdCmgHPRh5+gBEg5+ycPpyJqKsPbO+DePkI2t9Iqco7bIKK54gt2TZmF7bwouti60j7CDQBxnirBCr9ztIY/J8rbBCOLxNYnyT9VslYxdoa6rNRE+wgcEFOZn8TOxZ80utLR1kAXEVnknHvZY9gvDpGlpeVLkmKpgvfkNczuIOHguMHMaq7nS+CFIatLpUPCt65seWrVdbWxm3aEN/1KOR7VgWMvbiWBQGNo9KHX6nm4lW5j9bvjHlte45nisJLhK7vS4spc5o5d+iItEfhHYse4NSvoqXGazwZ8wWlhP52/STDTNk0lWD2eFa9GITi+GufZLrNoMiJ0AqL4sJ0J5UlHWSsIr/84SmiELSDUT5+ShO1cEITXy4WCKfZjP8HNsISUQ/NerPASEPhbqOP60QRCrSSknfyBM4LwegoYoqEKFOQgOL4ezTMLOzYFtcBBjO3tj5WZOdbmuiiVJPDTnNXCJtL/UdQ6TKZjj3YYmpvTyrQFCkWx7Jk3v9nhQYFnQUtsh87C09sWQ3NLjHUUuH/lWw7+kv34UwUEXjK8+02kTztrzM2ssTBQpSr1N+YsbX54UKAxjNHWElGUdJVbwoQ+khcqvjT9Qwlra0p5+X3SY35m3bzvOdWs5AuBfxOa/j3w8dKnoqyI9OMbOTH/K24J+4y9JJhhGxqGi0E55YWpXPh9DtHrDj3VYpkCAs+LtqGd8bWuoLI4i/Nbf2but9HcFYTC06FlIqd27kBy/ujf3kLr38xLlPMlICAgICAgIPDv5yXJ+RIQEBAQEBAQ+G8giC8BAQEBAQEBgeeIIL4EBAQEBAQEBJ4jgvgSEBAQEBAQEHiOPJ/VjiI9wsZNZ1iIA0bayoio4c6JGbwx5eENsAUEBAQEBAQE/t38Lc+XzuCl7IqOJvrwThb0V3tEKyVcR89hfA8X9KvSOb1/Bzt27OL4xfpqXqoBHzN3+TK+Gur8d8xpFkruk/kpOpro6IOs/5/Hc+v379OCflOWs3zpBLq8aFP+EegyZOkuoqOjObxjPm+ovmh7mo5a4MfMW76MmW87vWhTBAQEBASeIn/D86VDbz9r1ItzuK1ggp1vL9jYyN4yqgEMCLRFpTSWVW+NYWNFI0YYt8LOyZGKnD9tO/+MUMKltwum4jxy7hli4twFZ+KasTH1i0SFVtZOOJlJMH3RpvwT0O2Nr7UaxTl5KJjY4dsLft36oo1qGsrGltg6OVKerf+iTREQEBAQeIo8uedLsyPu5hpUZRxlb0Y5mjbe9GisnbY/FoYgzrjSqPB6IYhM6GJnguTONX6/mouSmROdTF60UQLPAu2O7phrVJF+ZC8Z5ZrYeHd70SYJCAgICPzHeWLPl6qXD5Y6YjIP7SJaLYghTtb4tIM9MU2/Rstxa9jU06rutU7H6UR3lL+Q3ObolwOYJr+eSMePUVPH0NnFCG1lETWVhWRf2c7MqetIqgBajmPNpp5YATV5J/hmeQUDPgnDWlORmvJMjs4dzowjcvWn2wtHMyi+dJE98S14M8wNl25qsLai3q4eOiRcuYtNG1uU7pxlX7INPdoZUVMQy88fjmVdLoAIvbBPmDUyDFsDVRSlYsryEtk1dyIrLlbUDpI1m3pilrCOrqPWPeI9TXrP2cBoj2x2bashuI8ruspQXXSD0z9O58ttGaDZmzkbRuOtUztbrgyJjmaI/FV1w+s/Fmfe/OJDgk0UH3H8FtGffc2WgqZcy5MuG7YTYAaIczjzzbcoDv4U71bqKEjKuHnwE36cvUdW6VjJE+8pS2nnY4auqiJScSl5Sfs49Ok4Umsr2Wt0o8M3M/FzNkBdQUJ59mlOptoRHijl1KdBHLrYxCECoEZbX0t0qjNJ2n0E9XaDcbL2JZB9nAbAmHFrf6F7iwTi7tngaaPInTMHSLHrTpBhDQWxG/hw7I+y7a5UPRg64xNe8TCvu//Sz/zI9Km/kQGANq/MXc/HnuUc+eJNpp9+xHvG41j7SzdUTu4k2SacIHNNFGsqyLu2g9kTVnCpEozHreWXnpZ1o9AJnUl0qPyFJLfB9QUEBAQE/ok8ofhSwrGjLYbibM4fziFXOZXcnh2wD/GAmDhAjcCB7+NvCChbowWIdN2IioqSnS65yeEl20g+dYgdEkMUDT0JDbSkOvk4xxLl+wvVFBKbWtudK6PnTSXSRoG7KafZn1iApkMAvv5vMXNKPoMm7aai5BSHdoCrZyiBZib0fsMAUcIhdlc50D7Ilg7vfcKBIzM4B+hEuGGuVErSxT2UHm1J1rC2WHm+ghobqXPOiVpgqrCXH6KVGdHJG8/4pWyIe4chHq3x7Qrr1oGS62jmjO+OreI9Eo/sJ03FlZAAd17/Yi5VH49idUZzp9WGsC6FJJ/cSYyKKyEB9oQMjaL/njFsrLzK0b07yNJQxq5dd1rrZHNxzwWyqJ3SS83oKJf4U4co136U47OQP8qaeq0sUg5sQ9I6AG9fXYxeeRvd6jhO7wHLDn5YdvqUDvv2EB1njtfsDfTwVKckM56zlzMQtfLDrU0f+nxzn+8+mEoR5njNmEP71pqUZV7h7KUMFGx9cHHUgCfZ4VHZifbWLRFnn+VwTg5qabn0DHEgxB1Ox9c3U2hhAntXc0R5OGHe7sQt+5n4d97C3dWfLvzIerR5ZcaXDPLWoezmefbHlmDiE4hHh5F89fk93pl+rJnb7Chi6N0ZhcxYDu2skF3LvQ9Ro2MYPDue4tMHZd8LozaEBlhQff0Ex/6o/15cudH8qRAQEBAQeHl4MvGl5EJvF1Mkd49y+g8Qqx4l7U4Y/nW5U1oEdY6kgVMLzLyJjPSW/b86gYIl24g//RMLT4Nm7zkEB1pQkXWIhQv/7DpTDRhAoK0y984u4K1Ju2UCSWTKhyvX0scpmDB2s6fiND8tjKP3nGACrWwxyP2SAdNiQGSB4tr1dDMxwQU4J89V06hKJ34XULGTq1kDcbHzpRcbqc9ak5BzZRX7Cx15q6MqaUd3sjugD0M8NGqtImBAILaqVaRuG8eHSzMAJfZPWsOicEfav+7M6rnNzSKTkLz5HcZsrAC0SZ+/gQ/dTXD0BmJS2f3dQqAl4zy707pFIVcXLqSpvq4HKST+0HbiH9+wCeSTtn4stwfswtPXjFY6Sfw4+AMyUcJELYbhYfroOwJFY/F006IiaS2rP5iKTEoYcmvOIfq2DsLZEM6qjKC1szY1ecfZMWwwyZUAdgSu2I2FQfPFl7JrJM6mEvKPnCKJatSOp5Mf6otLFyeIT6pvKM7lyqoD3HcaRAflNI7s3ENQ37dwV5cfNxhEdw9dpHfPsHzEp+ypBHQHsujHd3HziaAXx2huGpn07klmjphNPCCymsi6NV0xsvQC4ik79RMLT4H2K3MJDjCnPOsACxcKri4BAQGBfwtPJL5EJl2wM5FSfVMN36gofFFEuaKyLnfqj9x85g0NYx40HnZrJhpuRuiigLL/OPZEj3vwYLU2hg+fUHOX68fkIk6ayewhYcyuPSbPVaspkWL6fhRRiFATFyPStMG7B2zZ02SrcDPSBck9bl2udXGJST6RTn64OabW/tDcFP6aEgpu1freahBLapp3/gtHzN3E7WTK/587w59pM2RHVLtZ0kJJhLrzUEZHD33wtOpStC2B+8ZoqNVQEntYLrwAKqiofJLtWUWYdrbFRFrFTXV/oqL8QVGRikolzJw6YUISuY+/CABqbhboKYP49h8y4QVQuI8/sgfjbmuGayBsbaY2qrmfWyd+pRVi/mmftICAgIDAk/NE4ku3lyNmIhHKVgFENvRuYfFA7tTToqasmmqqSd8xkeUPlwarKeBPURipFIm48WvJctVAgdaER7ZucESCdXOT1v6xPM2crwepkVQ3+r7kfgVixNw+OZed2649dFIxRUmAJYCU6sqS5nf8J/Tp6WiGSKSMVUAkD9ymrVzpqgrrmhcrFBAQEBAQeCo8gfjSIcLNHOXKBNa/OqpeZ+m9z8qNr/85d6rJKKCqrtPokdJLWRQMccHcyY+Chd/R3FSqeuS5ag8l86MazPT10wiwD8GDGLKbdK0yruYV0s9Bj1ZeVhAjCzs6hFjTEjG30s8+2FxRGTWgAtDpYfNnb11zEamiZQJNdt88wNPM+Woa4hvJFJaFYGXdFpXEFaQ3JnyqSqgSK2Jg2wkLtso9aH+NllNH2lvc4/yxOO40FNy6vWhtrkxlwjpeGbWuLifLYORKfn7NEs9XVOHXptlecTWTgmrQN3amhyrysGM3nM2UkZZlk/CA10sBBRX5f5VtcTfVAcqb1lGjiB75vRAQEBAQ+GfSfPGl0xs/aw3EmYnsa6iwCndxPft17P+UO/V4SqMvcfM9b9x93mfDAm8uZBQj0jCg5sLnLDoA4mur+P2SLx94v8F3WwKIjY0juxgU9c3RujqPqZtyUQscyPv+Jhi2VAYFMO8cRZR3IbGb1nKkVqDIc9WkxWe50NDBVXmZCzeLaOfpTBdnWNskqys588tp0nwisYucxzK9k/KEe3MoTuD4ZnnIsfQKOXd7YuXYmxXfGBB73xgPMw2KAGOzEKaNvMm3y881Y7YK2X89ix5WtkQuWYnphUTyKxXR0bjHr1+taWKg8ynmfOm+gs/b7dEx1UcJERpWA+kY1Z2SCwu4cLKBjM1ZwOmYbliGh/PmptOkxl7i9r1KRFoWaOevYMeKaMhYSmJKDyyduvD6ut9JuJxGtWFrHG0eURlVpz2Dh/bDrUUpDqJZLDp0t96s3r5Ya1RzK2H/A8nw93ZfJ/s1e1ldul9PNm2MdzewNy6cj7z9GblyFu7yhHs3TTG5R3ayC4ASLqTnU93WjnYfLeVzrxuoOrthIikCBV1c+0/i1ZKv+S2v6VNbfPQyN99ti7vvB/w435eLN4sRaRogOfc5iw82aCiyYuK6NXQ1TmHLkOF8+0SCXEBAQEDgedHsOl+aHd0x1xCTnXT4QaeLNJcDqbl1uVPNongjXy7YS3KhAoYeoURGRhLRyYe2bfzk185n68QPmbMvkXuKpniFRhIZGUnPIFesrWVL8rWCOhMZ2ZNAKw0Q6eDQIZLIiK6E2NV3U5urVnrjIg+mdpVyND6LMiUznJpR8EucsIjxc/aSXKSJY2gkPYOsUcqPZ/O0T+pXOpZHM2f5XpKLVGjl24VuPtok7jrA7WJQ0LUlsH0Idn/Zy5965eq82fx4IYsyLVuCukYSGdmTkEB3vJp1naeEYXfaRvahna8Zaiii69KJ9pGv0ibo4d0KirnxTV82/nqe3Go97Nr1pH1kH0JC22JlZStvc4Nzn0/iZHIJqmZt8I/ojbdVOdnZj4gPlqSRnltCTfV98nOLGhzQpqO7ORribJIOP6hEpDmHSMsVoWnjTdMrfhXz++Qv2XAxixpTX7pGhOGuX8mNY8v5tG6lo5TMVUvYeDGLSh1XQnt1wq74ED9cKwaRGsbuHejU3A+o8GemLtpHcqECRp7y70WYD23b+DzYTssLQ22oKcknTRBeAgICAi89IktLS+mLNkJA4NGY47XoABHORU9Q5+s/gtEYVv8SgXnqFoYM//bJItECAgICAs+Nv7W3o4CAwItH2VQLVVENJflpgvASEBAQ+AcgiC8BgX84ajY6aCDmdsqRF22KgICAgEAT+BsbawsICLwMVN86T/T2P7h+WKidISAgIPBPQMj5EhAQEBAQEBB4jghhRwEBAQEBAQGB54ggvgQEBAQEBAQEniOC+BIQEBAQEBAQeI4I4ktAQEBAQEBA4DkiiK/niWYEX67fxpZV42j3om0REBAQ+Aeh0v0btkVHEy3/d3jTNDq8aKMEGkejF1PWb2PL958Q/KJteUlpfqmJluNYs6knVo86/vCm1f92WvRjyjehGN74jVGzD/xlU40OIXhY6KIraUuoH8Q0Z0vHJtOScWs20fMRH5Dk9lG+HDCN/8rH809Gq+cKevRqxf0DH7Pvt9TGG6l64zVpDkFtW6GnpYwCNVQX3yblyEL2LPyV0uZ0aPQ24Z8ORD9/G/tmLKfo8We8FOgPO8C7AxxRb/CetLqE7Esb2DN9FjlPeZP4fz8qdP9mI+N9dR94V1yex/X9y5i8+ASFL8AqccJR9u7IQVNkgEendo/+DQJQ8ubDr9/DTXKJpf9bxbUn6dBgLGs293p0PzV5HPuyP1ObuEXsPx7tfkyZHYrhjd8ZNXv/XzbV6BCCp4UuuhIvOvrByWfyW2fA2DWb6fWID6gm7xhf9p/Ky/rxNF98lZzi0A4JhgCKhniGBmJZnczxY4myP9Y1hcQ+4nfiX4lKK6ydnDCTmD62adne2az3+oIOHOXHZ3IzNkCczcU9F8h66O2awlj+Sx/PPxkVM1usnKzIu6bXeAMlH4IWrqOTkzoVeanEn46nWOX/7J13eFTV1offSU9Ib6T33is1dJESEgQBLypVUVCUKBYUEQVpohg60hGRIkWQKpDQeyAJIZUE0gMJ6W0y7ftjJiGEAAnXcu/95n0enoczZ5+911lz5vxW9lpnHxdcQnzweHEK92N2cjqxHQN2cMDcxRUbXUee8Crz/2BqyTl3lLulANoYBfbCu/Pb/GtePWs/iG5fEKpEjqyIG79fIRdAYIxnjy54vTSLJaqTmfhD1t9ujjT7COuij4DGIBb1eEbwpWKOnbM7buJiTJ93wOqLHD8gxRweap04gzOnGrWugsT/TzdTDZu2a93Rb/kpaDa9Baf/eq2TFBJ36OrjWleR+B+tde0Pvuovsi36ovz/HYayOKwrNvX5nIiOVs6mPAtZCb/Ne5/f/paxykmKjmbL3zGWkn8EsymL6eGuRfm179j4yaqmACPGsBfOLrfJbE/g9V+PiLKzH3LquGJTbQC1W1bS2WUgXtbRXG15Z1bybKQVpEZHs06xKdjyNqu3v4JL0Ct4s+D5ZpP+mxBe5JdGrdOJZHFYV2yFBZyMjv6PnU35j0H24O/TOmkZt6Kj2fx3jPUn8petcN9h6GJ+nhaMASBK28H08+7MGhOAmTqIypPY+cE0NmbzaBpTKqSmopj040uZuSaO+sbOTKezaddAtM4dIM3hRbrbdEBVWs/9WwdY/Oka4hobavgybnYUQ/ytMNTRRFXxsbT4LN+8MptT8s6apeWkCGsqKE4/ztKZzfoBEBgQMnEm7w/xxdJAE1WkCMsLSP5Dbptqs/MDwGscMTHjFBsikrcMYOoWgA4MXfwz04KbWj4h9aeB7/hv+HiYP9Z66gikQsrvXubnuV+xN7udfmgjKjYjmfX1KLrYmaCpKkNcW0zmqY3M+O6PhyknFRtGzvqaUV3sMNFURSaupTjzFBtnfMcf7chL+U/8hrdDjJ+4P+vwu3x3sI3r/XbdyrvzOlF9aCMFnmMIddRFDSEPUv/gj6/eI6O4ebsemAAysZCaikLS90ZxZHs8EgD3xYyLHonVvd/ZMv49Chr7V4sg/OdlBGsnsn/cUHJH/sEbo60oul6AaYArWqUJXE0zJaSbNapV6ZyaMYDzqQDq6A9aTsSEntib6KCGmLrSHG5um8zx39LlYzp+xWvLx2OaspMko3A6t2K7/Zw4xoWZNJ2u/fDdfDlcsVF/h9gP+3A2tScBnWzRrM3k9MpVj87slJ8m81pLfz3FD832A+A0iskxoxQbQrL3vsaWFYoO1Rzx+GgtL4Q5YqSjBuI6yu9eIHbuOyTlCtEM383k6b6U732NLUeHMWbpa1jm/cLGt3/GZfUeXrTJ5sjkgVzNb36eMiT1tVQU3ODCt29wPV2+Ur/Ze7FMHGZDyaE32PD9mabTUQnbyuSve6CV+D2rP1je+jUizqWiUgRGmmjpNX6vT7ddjjpGL68jYlQIFkYd0FITyD+WVZC0tCd7D1QAgwjfuRqfqt85melLzz726KrJEJakc3XtG8ScyG/W10aGvd4FKwN1VGQiqvLiOD1vXNM5tuV6kNvuid/MlfQIssJAV4sms8qvsXfsCG5VK3xjOYZ+X36Av7MROmogqS0j99IaDixaS7modVe1FVl1DhU1INDUfjibJDBn2Mz5jO5uh6mm3Kf375zmp0+/5XBjblKgR8+o+Uzu4YixgQ4agsbv6DZ7Rr/Fygfyeq4dH4cgPjeHUV+eBlr/7JnoTGPDwaE4Nn0QxuyYmMYzoKQ9fbURncjFbIuSa4E4bScfnHfjS4XWiRVatyGbR9OYUiE1FSWkn4hm5upmWmfyIZt+HYz2uf2kOLxImE0HVKVC7icfYPEnqx/e49V9GDf7A4YEtNC6knPMG/Ul8heNNU/LybWuJP0E0RTvCpwAACAASURBVDNXt9A6fYInfMG0iOZaV0jycbltKs3ODwCvscTEjFVsiEj+aQBTNwPoELl4G1HNtK711J86PuPm8cnw5lp3hW1zZ7OnUeva6oc2omI1gllzX2mhdZuY8d2xZlpnxYhZc3mlhdZtmvEdx/6CGoy/LPgSJp3iyIH7+HYfhIexH+8M7EjxuYMkGocS5u/LyOmvs/H9n5ulMQXoWDjj4eFO4Mi5LFWZwturspv1qIppcH8E+Qmc+L0Oi5Bu+Pm+zLSoC4xdmAho0++rLxnXxZDqwjQun71NSeP9VNT8hcPVXDhxAIkZCHQscPbwwD1wJHOXqjDl7VXIR9Qg4MMfmBtuj8qD21w+lsIDVUv8O4cQOHImX+UN54ukUxw5kI+OujPdB3ljUBDH4WuNN10JOdebPEHSqSMcyNdpmrq2acVfHSK/4esxIRjU5nDtWAKVFiF08+vJ5PmzKXvja2KbLrZn+aGNdIhk4bLJhOjVUJAUy7UcCZb+nQkZ/CHf1acxaUU20IHIhcuYHKJHTUESsddykFj60zlkMB9+V0/apBVkP3MgOXk3znG8TPuJ+x+ktfdFCxpY9x2LXlEKV38vRjewF96eQ4icXczGqXMoA7h7iGsHitFGHW1rT+w9nAh6cwuaksHs2ZUPaatIyhiMvWcX/MOgoPEO4ROOlbGA6lsnSC9HUUvUAXOdeI4dUmNQhDfOaes5eWUkL3Z2wOWFEM6nXkOz7zpGf9Ab84Z7pJ+N4V6dOfadg+g0eRPiwr6cuPzw9T+63kPwutfc9sH0n3qKrNl7KD27nzOlhqjbhREcYEzlzRiS7yjUVZTD3SLAPAhDfTVEpZnkPetLeJYfGvdrOePRyx+jiiTiLqXTAEADFZcbBzDCZeZ2hvcyR1SYQtzpNBpMAvEJ6kfEvGgq35hCTnE1DTJVNDoYgJkdelpS1A0s0cMeE2NtpDWFlCh+Jo3niaoRxm7eODmHEb5wJ5K3XyKhGIp3H+buC+/iGjoBR85wR2GFZZgLRoJq0i/soA5o9apSs8VAXx1ElVQWtdF2Eah0XsXIt3vTsaGEO3HnybunCGtVZZSlP3oH1rDrT0+De9yJ3UeVUWcCgjzo/v4GajIGcjkbNPuuY9TbPTCX3CPl+HnKjToTENSFQXN/omHqKyQVP+zradeDBHXsPt1ERC9zGu5ncuvSTSrq5MepyO5QrLg00BvJgO9mE2oh4t6tM9zIqkXPpztefT9mhOgumxb9IQ+2nxOBrh0GHUCWX0aG3AMMmr+KqZ0NqS1M4vTVbBos/OgSOpCoJSJSJ/5AFgKM31rMzAg3BGXZJJxJIF/hRoFGGUkP/g2DWqPhEicOCOjYWBcmuc3Z2GRFjZqMyqSMP3lAaGimdZ7Gvrw7sCPF5w+SaCTXuhEfjWHDe1ubpTEVWufuTuCIb1iqMpm3Vzb/EatgEvwinop7fMeQbvj7DCcq6gJjFiYAWvT9evYTtO4OhU39VHPx+AGk5o1a54574Ai+WarC5LdXKu7d6gR8EM03Q1rRuhFf8FXesMe0zrAwjkNXH2pdbpPWNTymdbat+Esn4hu+HhuCYW0u147FU9kxhG7+PXh7wWzKJn5NTJPWPcsPbUQnggXLpxCqX0NB0imu5YgVWvcB3wtTeXN5NqBDxILlTAnVp6YgiVPXchArtO6D74Wkvrm8zVrXVv6y4EuceYi10ZeZ7j8IbzsHpNveZOrGItB7mSU/v4uvmRPdgfPN05gABmNZsW08bp1G4rHqO1Kbd/rgAvPfWkgiILD5hM0/DcTCJhBIBDoQYGkC4hzOLfyIb28+KTSu5+K2aB6OaMDYFdsY79aJkR6r+C4V0HuZCb0dUC+9zA9jPuOQoiuBUXde8Ezi+AWAQ6yNBkyn4z/IG/3yJKKjW0vyick8tJZoeJimfayNEWPC/TGUlXJ5zWQ+O1QP6DF66S9M8glmyBCI3d1WPygQGOITFUVU0wcSck4uZ+9NxYhjwvE3FJG59z1FoAVo92P+TzMJ8R+CBSspMhpDuL8hosy9vNcUaGnTb/5PzAzxZ4gFrHwY1T6VBzeOsu9G29q2DQGy4hj2vqGYsWpMM9l3w8UaeZqpcAeXo3c8PMTrByZ8PwzHnuMw2DWfCu6QdOQW3byDcez/Mqrn9iABOvbxwkStluyEw83EvYGS5F0kxVnSK8KEojOLyHToR0PnxmkVGzwjQ+gozefC3IeBlkrndbw5tw+OvcPg8smH1lde58hbY7gtAlzmobv0NaysO2PCHu4fn8Op4/JC8oAAA2oy1nJqRfOpLMDREA1VkDZUKYIkI6xGfIybjZZ8vyiHzG3R5Ja3wQ+N+x2/wjrMH4PqZOKjP+F+S5ebjyMwyAJZ3hF2KoIVUCd95lnG9PTHzQ9yiu9SWdcbU0MzjH06olqUT6mGMfo2HdFQh4biQqoU3VUpzrORjh+cYUKEG17hziRszoTC9SSkjMYt2BevvprciRECnXB1M0G1Jou7F5pFL6hj1GMJvb2hqebLEkou7iO9vI22x4Ghnz0GamKKL3zLzq928bTJIoG0hPh5vYiJb9ZXPzuc+jhzebNQfj2oVpGyYTi7d+YDRuQtPMnITr74hjuTtPlhRcpTrwdcsbIxQFVcwq21wzgcU92qPbqDxuJhKaPg2LSHgZbaAOq2rCTIexiW/EHeU87nMVQM8Gi8hyhqvlzVakk5v1P+m9MeQ2SQMZK7vzNt4g/Iq8DUCJv7C3O6+jLUCn4oUKezkznqshpu7vuAj3/+i0v1xZfZHn35YV2YuIjY6Gj+3LmuFkNmHWJt9CU+bNK6SUzdWAgdXmbJL+/iZ+ZEGHCueRoTQG8My7dPwL3TKDxWLn5U60rPs+CthSQAAutP2Ly18R6fQHOtO7/oIxYlPknrhFz8pbnW6TFm+XYmuHdilMdKFqcCeiOY0McBjdIrLBkz46HWGXbnBa8WWmfyoVzrym4RHd1akk9MVqPWNaZpH2tjyJjwAIwo5cqat5nxiNaFMCQCYn5tqx8UqBjh3ULrcmOWs0chh4ZjwgkwEpG17z1FoAVo9WX+1i8I8Y/AkhUUGo4hPMAIUdY+3msKtLToO38rX4T4E2EJKx5GtX8Kf8+LtcW5xP+iUOmqPXw4dE/TLoFBEKPee50B3o6Y6aqBTIpAHQSaOg/TIAqklYVN4YWsXoL0kb3lHLyUSs9RHgxcepA+1SUU3cngxqndbNmX8HBqUWBA0Kj3eH2AN45muqghQyofEB3FgJr+Xlh0kFGbHtd0MQLIys4rLsY/GU1vrA3VQVJEatOAVRxNKWC8rxNWXt2hWZLy6X5QoGZFcGQkwU0fiEguawy+NPG2NkQdDZyHbyJm+KOHSsQmOANl3tYYqoOG83A2Pd4IE2egjcHXX0Ft4fmHqUJxDLfvVtK5S0cs3IF8ULGMpNOUKXi722KkIwApqKiCQMuwqaBceHwD6a8H0clvDN6Ge0gs98LRzQyNmmxuH29PuaYTZiZaoKFLtwVpdGuxt8LQ7JFtUXUhlY3KLhEhbe/EX005DRJQ1zWjAwCW2PUbRk93xTxQ/R0kJ+XBV1v80CasPDDUBnW9QYw/drflGdLBGEhIoLIOLPWcsLA1htyLFNn7YejlgI4GCEsTKQFAHf0en9Pjlf442BqhrQJSqSqqCNDQbXzAoIz0fXHcC3oB1/A30I5ZRZ3jYKzNNai9e4b0R+q4dLALG45d07aI4iur2f3VZuraajtQeiKGOy864dXzW2Ycm03ZvVxy4w8St2UdeQ9avLi8Np+8+Ifj5Z3LoqJfV0xdg4B78utBmEtRQqOhZeRdz6e6ky/m7qHQrBz46ddDMukX0wh1DiDki0T8PyinOCeDzNi1XN5/klrFcQZOpuigjt6Atcwc0OIUy43RoZ0ILAiMjCSwcVtWQdreBXy0Qf6rU/O1xUgd1BwiWB8T8eixMjByBQoaOBkbz+t+vfGduJc/Xi2nOD+T1DNHWb/7JIV17TXqPxxJLgm/KFS6poXW6Qcy8v0xDGyhdSqaOo89FCCtKGoKL2T14hb3+AoOXUyl1yseDIg+SO+aEoqyMrhxejdb9jbXOn0CR77PmIEttE5FEx3FgE1al9FC68r/Kq3zwcZIHcSPat2R5HzG+7pg5RUGzZKUT/eDAlXLx7WuvDH40sTHxgh1NHAatomYYY8eKpXIta7UxwYjddBwGsamxxvJte6/MvhCgqi14FwjmBkrFtLfSkplYS55eSIQaGPuqPccT1uJSfvxHYbt9mDI8Ffp3dUVR7cuvOTbjcHDTzB3zALOo0HwjBUs7G+FtLKQ3Lw8RAjQNndEr9mAkgohYgSoq2s9/yn/04iS2TJg6hMK7iVUCMUgLebK2gXsSH90r6yukDQa/SCl+MpaFjzeiMK0tpvzp9Z8tQXDiUQu+wI/YxFl+fkUlkpAVZeODh1Qb95OfIzrl3IJGOaO7wgPEg+8iK2VNnV5l7jdriLtekQiKVQmcPir7x4GhQokxX/qtB/cv055pRgVEwdsPOBOajKXpnhyCUUtVYiiXVv90BYa6hBLoCppNTt/anlnFlKdDogfUF8vRlXLHgsTFcqTblBt3R1DZwf0tYWU598GQHvINsZGdcJIVEZhbgHlElDVs8RW71GrpJdXk5LTkz7uL+Fvv4qk0GDMdeoojN/bYimMChIW+LP/OGgO2sVbH4WipSlpCkzaZDvAnYXsHr0B875TCOjfE0dnB7zDP8JvwFjil4Xz+6Fi/glKf3qJlQeCcR0+Ge/Ovtg6BhPmuZ4uL1/gtymvkVIOYqEICVWkbXqHCzdbdNCQT7stl6Sxvf8U1qGC6yebWDPQEk2NEhrjJWmZEBEySuPW8822lBYH13NPcX9oODqH189spFvkKwzp7o+zoy+9JwTTa8Qwtk+ZyoaWP5b/ZmRP0Dr1QGas+Jb+1jIqi3IUWqeFuaMe7VcZMWlr32HYHg/Ch42mTze3h1o37CTfjJnPOdQJnLGCb/tbI6ssIkehdVrmjug1G1BSJtc6tf9yrftpwNQnFNxLKBOKQVrClbXzW9G6IrnWlcm1ruTKWua3onVF7dC6tvI3BV9PQL83btYC7p+dz79myyeGBR0nsmLD6+g/Z5fSB6kcWPclB9YBAgsmrdrEaBc/+nWH8+f16e1mjeD+Web/a7Z8KlrQkYkrNvB6swHFdzMpqemLhVN33rL/mbVtSPYKNHWx4DkngoS3yC8XgYkFHuFaoJiKHehphbqsjoLkP/s5UjF3M0uo6euFvbcRqbtiaXXiWuEHL3tvjFJ3Nas7az9/fs0X6Fh2x4odirRjX1wc9KE+m9JcwLMP1iZicg6MZ7Niql8lcDnj50dg1qKfxtoip7B3cSi0xEqvjoK4HfK6sTaTQdH9amS2ttg6Z3Ftz5/1eJ2ifuoxLpKWWkKnfnYEvBHFzc+jWy+obocfGlHR0EOjtR25Nyirfglr21BM8xeR2Kqal1BVLULD1B6zeqi8/QfF7u8SYG+KqqCe8jR5+tS8kzPGomxOf9yL00kA6lhPj2GMlXmL/q6TcCqT0ImueI8Ip6KjHXq1uVw8ntpy4CaERxYS//J2+ni/Ss9eqzlyWthG2xWIi7n/xxz+UCzb12HkAd6a4odTWD841Cx9q2ONTQCkK9KONmFOGCAkJy8deEDxg3qwMsXC3xpS5WlHmyBrdKnldtrVpxjQOtLyONI2TiJtI4AV/j8cY6i/D26hkHIcylOLqBlijaWvLxVbVz17eQ1tF3r2caAy7hTx98RPG5mMpb+TEPYO/n3fZ/SaKLbXgTQng+Lq/vjb+2CWtp3jT5nFktXmcX7H95zfAaBG8OytLO7lTkg4bFj3sJ1AtTH4VsE+wApDUMyUNjfnAXUNgJ4+Vs86Rw1tWvv1PEIHN3r1sqPs6ikSi5/mh38D/T642QgoPjuPV2bLH/0SmE9gxcYxz7bvCUgfpPL7+tn8vh4QdGTSqs2MdvWjXxicO6dPHzcbBMVnmdf4sJnAnAkrNjKm2YDiHIXWOXbjbfut/NgWrdPSxZLnnAgSJpFXJgLTR7VukJe1Quv+7OdIxeRkllDT1xsHb2NSd8W0rnUKP3g7eGOcuqtZ3dlfx18UfKnhHD6RCFcDHHR5WH8kyeHk8r00/VEmqaFBpIJd0AQWfRpIkaolviGe6NRUoWLgxWtzpqCxajWxbfo96DNq9iK6q9/lTokQUMXY3h8/F01k9UWkxwFIqGkQoWIXxIRFnxJYpIqlbwieOjVUqRjg9docpmisYnXsHjad6s+CcHdGrd5J8PXrpJQIQdUYG5M7rP9808P8fPkx0vMHY+8UyfIfLbmWUoJQ1QCd0p3M35QKWl15bXLnpnXRTNVBBWteiIoiFCnlCbvYHFvE1kMJvDgthE6T17DIR1Fw79MBcdFpDh78c78dgKo9mzjVfwHhPT5n17aXSUy8TYlQgE7HjlQfnMGy80BVox968PmubbycmMjtEiECnY50rD7IjGVtDwr//JovwLgnL23YTcbNYjr4dMfLUpWa5NMkZwAdamgQa2Dd8xsi1BOo0XHBJcgBtep61M170PuLGVxcsVBRE6WoLQoIpdswHQzqi7h+7sni3jplpG8+TJbXa/i+cwLL/olkpOYjQht9CwmpC6fKa4/aQemZBO4Pd8Ou7xLGm1zibkENKgZG1B6YwKUbInJWriDe+yuCg99n0tZw0hNuUlGnjYmTLlAp76SuHX64c4CcotE4O77Ayxt2k3wzB5GqEdqVmzmy7jRUbefCiddxHhXC0E3X8LsZJy9I17TEUHqAY4u3U0cyhcW1CKwNMJBUUJCbR3GREONQG9SE5ZQr7tji2gYkmtYEvLcNtZRSNBxC8LBTp7pODdPOXzGgcilnfjpOHVC5fwdZQ7/GM+g9OmkbICw6RtZTReI6V/YkEPBRKF4jP+XS6TmUtcl2xcK2A4woy8pHBKgYOGPv54EudWRlxj86jMAI3xmnMUiIo8ogEJ8gC1SqU0k/LE+UpBy4Rmev3niM38sIp8aCe2OkxZe5eag9KW0bPGesxs+ggHv3agB1tO38cPXQhdoM7in+UBce/5a4yC30C/mId3YMU1wPoGZmg+zUu5w83jzi1KXL2In8y9+QOg91CpYcebzGrznCvaw+F8GagV4Mjgpi+4LrINzH+pMD+X5oVz7d9QvDEhNJL65HoG2OVf0xPv7hNKBG8LsLeNOhmrT8CkCAdkd3/H3NQVZEfpy8e9HlLO6LQnHr9A6rZ/uQruqOn6WEckDP/WVmjahg7m6F/8UJJBVU0zPAm5GrZ9MxrRJDG3sqfo/ih8biroYYrt6dQmhAIJO2RRN49S4VAm3MSGTmD4eanZg+3cdO5BVffWrdVFgY/cfjwd5TUcMpfCKRrgY46vKw/kiSS8zyPQ+rcCU1CJu0LuARrRMYePLa3HfQWLWKmIa2jKnHqNnfNtM6FYzsA+RaV1dE+jUACTXCh1oX0FzrBAZ4vjaXdzRWsSpmN5ti+7NgiDsj1+wkKE6hdSpG2Jhms/7zjQ+1ruIo6fnh2DtGsOxHC7nWqRigU76T+RtTQbMrr07p3LQumqk6CARW9IuKIgQpFYm/simmkK2H4nkxKpTQyT+yyEdRcO/TAfG90xz8vV3ObxNVuzcR238BQ3p8xq5tw5tpnQXVhz5l2TmgqtEPPfhs1zaGN9M6i+pDfLqsRVCoqOfzl1xhyfAZHGp15KfzFwVfmvj0HkRk0yOnivojUTJlzYOvso2s2u/LFxFuhA6wQyaqJP/6Po6qRTI22ByPrj3pcWw1sW2Z8lPtiK2NA17O7vgqPpKJ6ygvvMHeNXPYUQ9QxsZV+/H9IgK30AHYyURU5l9n31E1IscGY+7RlZ49jrE6toj4JR8wq+wTpgzyx6HrAFwFAFKExSq4wMMLUpzE999uxejjofg6dWOAq7xdTXy6vJVuN16IbPlGAFd6RboCEu7px7E5toiaA18w21i+1ETIADv547d3zrBh7tf/1ozTE2mIZ8kHsyj7ZAqD/F3pOsALASATV3EjEUWJWcMjfnDtOgAveSOqHjb6x6hNP0GG4QBCI0Lkj+enHOSPrxVPOsZ/yalYd8J7ORI4yBmZsIzsc79w12Ycvd0t8eg2gMLdiqCjqbaoPy5OIMw6Slp7Yy9AmvoFOz8u4cXpY/B0CKWrW2dAhqQijWIzaPey4Gmfc2C9BcNeC8UqeAB2IYCshowCfy7dSIDynzn0TjElH31KaIAjfv1d5d+hqIbS3GzKq4DU9vjhOue/WYb+7Lfwtg2mq2MIIKU6JYernKYEEfd/fImfKtYwaFgwtqEDcFIBZGIqU9LpANQB9WU1NOjaYSG+zKlUqLlXiYqRFVpV2ZQrKr7z1/zAFZcvCHHuTndXKcLSu8T/dgHTUS/jbO1DQM/+3FAEX1Rt53r8O3j388AeIdkxu54eKNBs9sv9JXpGrGb/78Vtsl3LxgFrD3c8fBrXchAjrCwm9fdVHN/S4qKoSSc+wYjgPsMUS02kcn7tGzQ+HCqMmcQuI/lSEx79hyuWmrjEkXnjHnnS8dmYYGTrgLOHL+5NZgmpuneTM798xNXGQFR8jQtRY6n7bDHdghzw7e+K/BSruH3XCh5JPNZyN6uQKt8O1JUUUfpMG5rNfvWYxFtbprC2QELysig+K/+EqeFBOHV5EQ8BgJjahEZfqWJt44BjkAnujUU50gZqSm5zattSvlc8KScrXU/0Vkc+HxWEe68hOJQksmPhbXp/Z4ehmQ89+4VCY/CFkD1fr8Nn+SS6ufci0h3E9ZXceuRhbyF7Zn+H3eKp9HXwpVekHwCiAgFdOdSsCL2GO3cKqfbWprqk6DlW7tdooXWWTVpX3jz4Kpdr3awId0IH2CITV5Ift48japGMCzbHvWtPehxbRUzL7G1rqHbEpjWtK4pn3+qv2V4PUC7XulkRuIcOwFYmpjI/jn1H1IgcF4y5u1zrVsUUEv9DFF+Uf8I7gwJaaJ0arjTXumS+W/QTRp+89ASt60r/yJZvBGjUOin3Da6zKaaQ2t+/YLaxfKmJkAERCq07y8a5X/81M06ieH6I+oLyT95hUMCjWhff9AWJHvHDI1oX38oqAlr2GOmBJCuP64/vbRMCOzu7P7HQRomSvwHFulRql2ew9LMdz27fRrQjdzNpmjcPtg9j2/rniL6U/IWY4/3tHwz3us/xd1/k0p/93He7kK/zFax+mR3DXyH92QcoUaLkfwidQYv4+eMQuLKE4TOeZ95L+WJtJUoAULF8gxf+FYB+aSI3disDr/8s1NGP+IEeAXqU3dxJwj8aeClRouT/O6qmOmggoTTveee9/umCeyVK/kks/0W3t0Zhb2uNpZ05upSSsOpDkv+JtwYreQy9/nMJezEUcysbrC10EZRcZv+SDfyvrU6gRImS/y40zHTRkZaRn/T8608ogy8l/3+xHYh/mC+69XWUpx4ndt2H3LjZ+gKWSv5+jLoNJNhPl/qacjJPbuBM9A8U1v7TVilRouT/N6po3zzHAXE1Zy89fy/Kmi8lSpQoUaJEiZK/EWXNlxIlSpQoUaJEyd+IMvhSokSJEiVKlCj5G1EGX0qUKFGiRIkSJX8jyuBLiRIlSpQoUaLkb0QZfP3JmE7fREzMMVaM+6ctUaJEiZL/TLrO2UVMzF4WvPBPW6JEyT/Dcyw10YGhi39mWvATXgcqSmbLgKls+ffs+mtRsWTgRzMZ19UZUwNNVJEhri0m6+IuFszbi3INx/8dzMZt54Uu2hT89BqnLz7hVcP6gwj7chZBnuYYaqsBEoQP8kg5NJNDm88hac+A7p8T+X4f1NOiObDsEK296/o/EfsvLvN6346oNvtMIiwl58xS9n+7hcp2OUEJODFp9TJGu+u0vrv8MvOHf8aJv9eo9qHpzujPp/NSoB0muhqoIENUVUBK7GbmRZ+kXW9IUqJEySM8/zpfsgoyzpwmpaLF55Kc537X0d+CwJSXF63knWADxKXZ3IhNpFBiiW+nINx6DePV43tZcOWfNlLJn4WOrRNO7jo0WGgCrQRfmsMYuHoxnSwFVOXfIi7+NkIjXzxCXPB/6WNyfjtHfHsWXTV2xsrNFa162//CaeVS0o+eoqgBwACLbj1x6z+bV9UKWDf3ePuCUCVyRPe5eeoSd1quDFuTSsY/YlAbUfNgcvRiRrrrUHc/nasX0yjRcCAg1AfffiMYfugkP/5Hn4ASJf/ZPH/wJa0n/0Q00f/su5Xbjd6/ZjE+2IC6tN1M/2A1aY0v8tRwI9jzHnEJ/6h5Sv5mXGfOIsQSCo69xaZFJ5sCjBP2Q3DWOUnm/6vV7mu5/9OHnCpSbK6exohfo/DynYCD9nEylUvLtx9JFRn7olnxX/bGKvd3PmKouxalcT/y4ee7yG2cwjXyJtj0DnHKwEuJkn+Lv2yF+w5DF/PztGAMAFHaDqafd2fWmADM1EFUnsTOD6axsWQoi3+eRrC8ETumn8d91hgC5I1I2vkB0zbKk4ACo758tHAKfZ1M0FSVIa69T8rB7/h0TRz1AKbT2bQrHHtAev8si1bXM/qjvjh0UEVal8ep797im1htXuvtQQdJPn+sbhZ4ATSkPxp4afgy/puPGeZvjZ66AKmwnLuXf2buV83Sko+0kVF//wa/JbfiDBUbRs76mlFd7DDRVEUmrqU48xQbZ3zHHy1nDp+ICS+8P4PhHh2esL+SG5tnsK6ts3ZjDjNjgi0ZP+9A1n8MXh21UJHUUhi/nYNfzKVQ2LydFxqATFRHVWk2NzeMJ+ZEETKAfj8z9bMwtJJXsvL9xQ9f/aI5g3/tm4xbeQzrx01E/dPLvN4Xbl+T4hjcEWneaa6XBNE5UA9p8TV+f3MUSVUAOpiN3cjQlwKxMNRERSamujiFa9ETOHupRD5m1w1MntMP0emNPPB6FR+Lx20PWZ7OYG+NptP1fu86DEvxzAAAIABJREFU3u8pNiri2Tf2JW5WTcHP3wiV0qucWX7y0Zmd7INkPuavp/ih2X4AAmfwacwMxUYVt5b3Ys++UoVvAgmZvYLugRYYaKoiE9VQknqEw7M/Ibtcit47MUwdYUb68l7sebCEKbN6oxE/h9UfF9H3l+V0UrvMtnGvklnX/DyliGprKM8+zckv3yf9gRQA1znXeSVMi4wNvdi57WGiSG3sYaaP96Iidgzr5p5t/RoRZlBdLQVtHXQa7xTPsF2ODtZvb2PQi26YGnRAo3EKUFbAxak9OZ4iBj7lX0emYJG8gQuSCHoHmaOlIqE2P54zi1/nSmJds752EhHhibmOGkgaKLtzgmOfTW06x7ZcD3Lbe9Nt3nxC3E3R76DRNDMpyzvKjxMnc1+s8I3bDMJnjsbD2gBNFSmiqgdknpzFgeVHqf+Tl6R2mrSaZaPd0QHKr67g+/z+TB/ihqEaCAsvsSZqJvv1JrF62Wjc5Y1Y8X0+/acPwU3eiEtropi5X/7dqjmO4MsvX6OTrQEaKjJEVXnE7fiG2dsz5CnwrnPYNS8MU0B4Zz8Lj3TkrYmdsNQSIK5M58Ds91mR4MPwUHs0a2+zZ0WzwAug7BZxZc22jXoy7esp9PcwR0cNxLXFpMeu4+vvm6Ulm7dRlVCdc47j91pxhqY/b8yZzhB/Kww0VJCJqihIOsKyWWu4qnyzgZL/MVQNDAy+at8hGni8OJwuVmqIVC1xCexCly5d6NKlEx7a2cTflb+eRSbWQI8KBKaumGmp4OxkTc2NkyRWGmDr4Iy3i4Rth6+joQcVAlNczbRQcXbCuuYGJxMrMbB1wNnbBcm2IySqeRG17GuGuGhTmXaa41cKULd1wzOwG4FqFzl8owKkoKtXj1DLBjtzGSZWzmjkn+P8XRWsHO1xdbMk7aga3cf0wLIhhd+WnXzKtH8HIhcs460QM8T514g9k0qtkSMePp3p7JDH4dN3EaOGzyeL+bSHNSrlKZw5cZkcVVe6eZugo6lKccLPHE5Q9LVoHVO7mSO9n8T52KtkVuvj4BtCj1A9zv5+hbbFXzKkqirU3ssmKyur1X/ptzIoaOvbcfxfIyzQCmMXNzSKbnD9YgZCMyccXIJwcL5HfEwSUgCpPgLRfXLT7lAm1sXA1gm3HkPQSv2FzAIx3ClC74WhONubUX/0J3Ibb5JDP+TFrpaUX/uSM7E56PechJ+jGSp5G4jJdsHTxwlp3EoSpcE42ZsgK9lJSmodemP2MX58EEaiApLPxZKWLULfyQefnr2ojf2FgmoZ2A4lpI8TJtbOaBXdIO5Co+0BmHY4QuKVUqRaNtTcS+e+wBpLEykFl44Qf/0W2WkpZKeeJevqDWpdx9A10gP17EOc2H8W8dP89Sw/NO4vUsPIzgRp7iUun77C3bQUstNukn3uBMWlEsCOkCV7GBRshCj/BvFnL1EgtMDGrxPeftrcPHKWKteRdAsypSZ1K0kGr9Ev0ASNmgKuHTTA/81O6N87y8l9JxFB03lm3y1DqG2MlYs/PmFe3D30O5USKC3xw62/NzYGutw4eLKpBs379c/xtiojeflcMookGPachJ+jlLw9G7nTeA1pDibg9a6Y1aZwfvd+qqTPtr0BUBu1mzfHBWAoesDta7GkxCv8np1KwcmTlDQAhOHzeiiWZp501Coi7fQZckUWWDs54xYaRNGhPTwQgd6YfYx5zRejhmzij8eSK7bE3t0fz85O3D16RF6L1obrAXQIWPwbAwMNERencOvseW6nppCdlkLB7SukX0uUB98dP2XE8rfxMRZTeOMMCdeyqTdzwiN0AB05xK2Etk6FGhE8ZBC+JgLE2jZ4hDTeJ4NxkGSQVCD/y08s1UFHWIuGlQPGaro4Oepz79JZbotNsHNwxd06j1//yERHR0ithhUOxmroOjmif+8SZ2+LMbFzwNXdmrxfY7ij15dZS6bR01qV+4mxxCaUo+fghndIV9wqT3MyrRYkauir1yE1sMVGTw0zWyvEaWe5VqyNrYMTrs6aXE00Z8CIAAxKr7Ft83me/PY6J95cMpcRXnrUZl4i9lI2so7OePh3JtDwFkcv30OKHoO/ms+EQFPEhfGcOhVPiYEvoc5GaGuIyD+7k5NZir6WL+ZVP33qc+M5e/YGeRITXPw60927npPHbqGMv5T8L/H8M18CA1x7ReLa9IGEe/pxbI6V5yzEmYdYG32Z6f6D8LZzQLrtTaZuLAK9l1ny87v4mjnRXfwzh9ZGc3m6P4O87XCQbuPNqRspQo+Xl/zMu75mOHUHTcFoujpp0pC5l+nvriAbUDv2GZuW9set50g8Nn5Hav1FtkUnMnRxGF3tnTAp+orRc86DwAbVzT8x0MICT4E6AgFI6+ueHvAYjSHc3xBZ6WXWTP6MQ/WA3miW/jIJn+AhDCGW3ZpdeCXAGmqT2fneVDYWAWjTb/5PzOyi/lhfosy9vDdphWLWTNEuxJ8hFrCyqDUjWlLP3QuHuNuuL+lZqCDJ2sqmxhmrxjSTayR22jvkaaak1ZxNanbIwB2891EXXF4aRMzVvYi4wJULdwgZ5YjLaFcuLM9ABngEO6IjKOX2mevNZpRqKLq8lQTdAQzq3kD+L2vIfnMCUo/GouQgQvp6oFeXypEpg7laKJ/ZODdqP9PedsPlRTOubnn4J7Og4Chb3/2EChlwfTNTZvXGyKEfGmRQtO9TipAXkge5CSi/+hWnGmeeGjHWRUMAImGpPNDEDudx72NrpJgTqUsiaeNGSkRt8EPj/q4b8AhzhQenOB+9BiEtcJ+On6cudclrWf/efKpkADoULblKhFtPPAznc/XOPSolPuiYaWGvZUJtXj6qHSwwsAENFaitvN0URDWeZyMe824womswgV06kHu6Bm4uIjmrPy84diXIRoWzeVLgdRwdtRGUJJCR1tDsaB3Mxy6hd/OaL10RObFruSdqo+1lYO1mgZZASO7xSexemcTTJosEkizOTg4nrrxZXwEeeIR2IP20u/x64B5XvhnM0St1gB2Va07wglt3grp0IO/0wzq+p10PQnpjYaGFQJjN1dnDOZfVeqht9voQXPTqydgSwY4td+W2a8p/F46hr6K1ZX77Xuytbo5v/0h8mz6oJ1N8kh1X5UFcVfyvrIrvypxuvXCx6siDZZP47PdycJ3Cj9Ejse3ohUfVCn5dFU/XOd3o5WJFxwfLmPTZ75TjypQfoxlp2xEvD0jyjyTIUpXK+PVEfbiLYkDv5kI2Tu+ET//BWO/fQn7hcTZEZzJpdRgBFvZoxXzIpBWpoNYL/e2z6Wpmj71aFgJAIqxtrUryIYGv0Mu1A6Lcoyyc+i1XRID7+6yPfgnHrkPptCyB8+aDedHTBOmDy/z43mf8Xg5gxevLVzPRu2VfOlQl/MjbCtub2jl3oZfhLnb/vyoBUPK/zvMHX5J7nPpqNHPaUvMlziX+F4VEVO3hw6F7WmtEbvwvCiGpYs+HQ2lsZTTZHEMklObeaEr5iTPOcrekP9aWDnQGHimpkD4g/bTCMFke347ry7cAOoP5VgYqHQywfIq5mt7WGKqDpChVHngBVB0lpWA8vk5WeHUH4k3Q0gBJyV0uNKlfHQkPqgH9x/rScB7Oppjhjw4kEWPiDLQp+PprKMvZ9VBMhOvIzZ2Kl4cNtvqQWQdqbuPp8cYYXF0s0NcApALUBFCvZd6UtqnadJDMwVF4dv4EyzWTKBANxsFRH5WSy9y68tTbdws6Y2ysCjoeDNqWxaAWe3XMtB7ZrqvIepgGEkmeKvKtUlpNgwyMdO1QA4T44DpgGJ0sFM/8VTjx4Bd58NUWP7QJb1sMVUHH6y0+OPlWi5266GkC1+9SKQEjo2As9A2pTj2OJNgWMw8ZOipQfe8k8pBJB7PwhYRFhmJrqY+GACQCdQQIUTdufMAghysxKXR92xfPcd25MO8skq59sDJQ4cGV3eQ8EkkY4zZwOG5N27XkHpvDruhL8gC6LbYD2Scvkd85AoeXD/L5kCpKC7PIubiPS9t/4kG19NHDSrJIbxLVWpKSchkY4IZJkAmcVlwPlYXkpzQamkNGxj16u9liFmoKzYKvp18Ph0m59gne4U70XZ9G98pS7t9JJfXEIuIOJ9GgaGxhYYwqOriOO8WslsvF6Fq2/4ZZn8neDye1rearKouzRxXOyFjN2+GrW2tE1tmjyFtlsPrtcBpbBQ4zQQchd7MSm1J+VddukF/dCT8rDzyB/OZdCQtJilUYJj7NzJF95f+3m8hwQF3XGJOnmGvu1hF9VagtuC4PvADSzpJZEoGTiS2BHnC+QR9NVai/l8r1pu+5gMwyIc3lR96XAL2AyeyMmfzoQPV6WFgAyuBLyf8Qf1nN16NIENW3oVVbGrUFmQxJa3/Y1l4kq1hEiLMdAf1h9/E/YSxR3VPvCZIKIWKkFF9Zy4Id6S3srKMwra0D/ck1X23Bfh7/+uFVnDTqKM4toFAoAw0jrHVbPD4vXEpC/Dg8wkII7a3H/pwBWJmqUnb9YAtxfxZViEQyKDjDtu/WPzbD0JCX3+pRz01aKhV1kdiYe+GkBzerDnP01cMcRVFLZaNo11Y/tIXaBkQyKDrzIQf3t3xYv5KKYkBSglAoQ12rKyZGNVQcy0LQxR8TF1X0VavIzKwCwHDyfiaMdEW9tpiC/AIaZKBuZEtLs8S7fiFt5AKCAt/DWecsZd3cMFYt49ap4y2Wwsjj3KthxBSB3uTjvDPKGU2NBwgbo5i22A5wcRqbR3yPzeCpBPTqgq2TJ4Gj/Ql6aRxnPx3AqaQG/gmyl/Rm6ba+eI6aiEegO3Ye3ejvf4Aew/bz05QPKBKBqKEBGZXEff0J8S2nx2tu09as/vMhpaENa5NI29KoLcikSFp7hDXnBrllo/Ewc6JLAJyP//eHkjbUPHUWra66AQlCso8vZ+mRgkd3SirJzWz9OCVK/lv5m4Kvf4/apPuUj3LFyDYQe87L046uPXAwBXHuXS63uady9t+4w1BXNzqNn02fs18T20q8J7yVT7kITCw8CNdCkXYciKeVOrK6ApLPA5oPqG8AVQsXemvBjnoAbfxNdB/pS3w3k5KavnjZe2OUuqvV8dpGDbevneJ4rsYT9gvJy2l/r0Z2o9BGkXbUnIStrRpUFHO/BngxEBvtGlLW9OLXXQ8AUIvYxTvTTB+b7cn49SJFXcJxjZiMWaovHdXKSD75ezvXuTpDSYkYHF1wVLvGiWt/1uN1amjoq7fy+RYyM6fiFeBD56lDyFh4sPWC6p5t90Mj6prGre+7cZsyURdsnfqjmjKF3MfykgDZ1NRI0TPyRl+vhvvXTiF7+XVMHBpQoYKyi/L0qYu3PVrVCewfO5SECgAdvBZewMZctUV/O4m7+j5+A30IHBZInrslaqXXSTlf9QTroWrNem71W0BQtxl0sTnJ+TxpG21XIMwhb98n5O2Tb5p+cIa3IhxxHmjJqaRmK+mZOuFmSFPa0cfHFnWqqMioBC5TWioBO0usPbW5qUg7urp2RI1Siq+WPMWA1hHfi+Hm8hhuAuBP70176OkUipcJFBVBfm4Joq6OWHXR4Niik89eXsPEn/6dDcg+d470SumzWv+l5Gc9oBYrzJz8MCNVnnYMCcRaF2pSUklpc083OZlcSJ/+tvR5531OvLuMhFZ+yPfT71EpATOrIDqpn1CkHXvgbKqKpDyXG6mAeSVCCehY+RKovptYEYAVzkaa0My7VbfzKBWGYOXsiuzW4VbHU6Lkf4nnD75UtLB+IYqo0BafS3I4ufwAteETiXA1wEEXEBjiExVFlCSHk8v3Km58oOYczsQIVwzkjTD0iSIqSkLOyeXsvfmwS+Gl7VzMCiHSOZLvVxpxLksDrx5dsKaK5DO/kgpodX2NyZ0tMDNVBxXktgWXk7BrM7FNaT0ZhRvXcDxkHuFOvfh81zZGp6aSXFCFqrE9/g517B37Ob+VbeVQwotMC+nE5DWL8EmoxCKkGz4dxBSdPshBAOEVfrtZSLe+fkzYugLX85lI7YPws1F9NOCo2sOmU/1ZEN6Dz3dt4+XERG6XCBHodKRj9UFmLGvrWh1/Rc0XCOxHM36lP6kZQkxCu+KpK+PBxV/JqAZq6mmQ6eI8bBMDrG8jMfHFw98EcYUEA4dXGDxdzNll6+U1UY21RU6D6G9gh3pFElmXnizurZPDle3n8P28L90WXMHxVjy37xYjwwAjs3wufPWlvPaoHWRfzKCidxguow7zqvN5CkrFqJlqUfLdO8SX1xK/dDseyybi1n8pU7zeIj3+NjUSA6ysmv002uOHi3+QV96HIM+xTFzpRXLGfWSaHVG7E8WJXcVwbz4XL7yAXZ9BjN15kfTEqxSXikHPDv1733Jo7RUkHKbkQTQCMyP0G+5xq+Y6lKjj52qKWtVdHihiUmG9CJmeJ92+Xo/R3Qb0PLrgbiymUqKLdfiP9JF8w5kDCUiAwi2x5PR5HdueC9C1V6MyKYbsp1Yw7+T0yTfxHuVMwJRRXJm5A1GbbFcsbOsvpiinGBmgZuqJk681apRRktCi7g4Huq45iuXVZMTW3fHx7wAlF0iKKQeucy0mlYDxPoR+cRj10zcQOfQi0FWDhuzzXL/UnpR2EKHz5mMvSaekVAxooecShJuNGpQWkFcpb1W1aRUJPRbTacBa3ve5pbgeQMvKiorNY7mY3HzWzoKICeMZ5KRJqXUN89bFPV4PpqqH67AoolpZ52vfuvMYjRxDb2szLDQBVTN6RkXhU5PKvnVHm0os9AJGMqa3NWbyRpj1jCLKp4bUfes42iyOvX/4ANcjvejlP4HoJc5cvWdMYI9ATCTFXD5+mHzAsv8bvOJthp2B2kPbKos4v20HV5um8MVcWfMLF32mEeYylEU7Q8hMSyHjXh2aZq74mOWy8q2FXLqxk9MZ3Rjt8QIzVuhxMV2KY+dOOGrUknlxP1cA7v9BTNoofEPCmL7xe7rEFaDlFoSnGY8Gtmlb2X21Cx+GRbJoZwApiclkl4tQNbDAIHszX25+NG+r1mse22d3RSN+FeM+3K3MSCr5r+NPLLhXIEqmbPkxynsPIrJpFXwrgiMjCRYlU9Ys+NL06c2gSPlyFABWwZFEBotILns0+EKczNKPF6O+cAp93foQ6SlfauLmr9/xqWIpCt1uLxAZbt90iGuvSFwl99CPax58AQ3xLHnrTZIVK9w7hvTBBZCJ6ygvuoWRB5Baw4EvZmP8zccM8w9hgJ18qYk7ZzYw9+tY+dIWNBD37UK26n/MMH9P+kR6ICy9xf6DRQwY69d8QOKXfMCssk+YMsgf164D8BIAMjFVNxKBf3ahtNLrhyjzGEn3SMXj+XGbODhnhzyA3Ps5p7psoV+AL50j/JDUFJNxdBvV3d8hxMIR37Ah3F6rCDqaaov8cbGFyhtHSW9v7AWIT09kS8MCwqcMwskrjB5+AkCK6P5lUjVpd/DFybfY57KTiHB3nMIicQGQlBLf3ZD4Q+WQ/Q073s+iz7Sp+Hl6Exwu/+4kwiqKb2dSJW6vH3ZydIEPOh8Nx8k9jB6eABIeXAznzK7NNFBL5tzBbHuwgf79PHDtHomn4nooueSFKvIAprqyBqm3JRY517hbBYZl1egaWaJS9IBiRdB0c8UGXOdPwsP3BXr6Sai9n8yl3x7gM6E35k6h+PfqygVF8MW9+SSlDMMxwAMdqrh1btfjDwO0oGn2K+RdevjuJeZm22zXt3XA1s8S1wBFRzIxdaV5xG/7hj9OtLgoSq4Sd9+LHoOGK5aaiOPY4jdIV5xj1dZR7NKRLzURGO4oX2oi8zDHPptG3rNO4BHsMbZzwMPa4+ESE6I6ynIvcm7Ne2Q0BqLCfRydUk/1l7MI8vRquh5kohISHHXgkeDrAbdzimlwMKX8fmHr/nys4F5BeUeS1qXj2HcwkU2r4DsRFumk2Pcw+DIL7cvgSPlyFPB/7d15QNRl4sfx93BfAnLIPQz3fSiIIBhIqSgKq6V2Wbvdpq2Wlu3P3dRa09JKu9Ndj1LXLElNzRs88RYQEVRUBOS+5GaG4ffHDIekhYoYu8/rL2Z45vt9vg8DfOZ5nu/zgHNEHM5UYpV+c/iieh/z/26G5jtPEeI/jDj1UhNHV/6TOephYtmQEcRFWKhfoK5bQzaKvR3DF1CxgznPXWlb4d5jkD1eQIu8lvLcYmzsgPzL/Gv2IgznTWaY52BGuqmWmji/fTnzPk1VfwitYMuCpTjNm8wwz0CGjfGjrvAEPx0yY2y8VccTsuPdGShenckzUV74DHEkQAK0yCk48AudZvUidTdDHznlhVdE8BJ6JYlUKu3mlWuEXkG9LlXJ9kj+vbj7NlQynbKPVx7ty/kFD7F5912kL+E+8iRi2RaizVJY/8yEtoDzYKjW+XIv+plP/vwa4p0i3IlBc9bzfqQ+qV8+yxviNkihF+p9O6AIf1ha7vOIGS5DknOI40ni3+kfiwGWL35CiIsGeUeXkC0WTRJ6rT5YGOogkVdReEUEL6F36hUT7oU/MN/JRD8+Chs7W+wczNGT53Lo87coEBNm/xCsx37KwEgPLG0dsbXQQ5HzM7s+OyL2aRR6MUts++hAbQHpaQ+6LoJwd0T4Eu6NfyzBg9xRNtRQcnojyUtmkXn9N9eKF3qQbdRw/N2VNNYUcW7zcvZ+vka1Krwg9Fo1XDi6i5+aT3NCfMgTeikx50sQBEEQBKEHiTlfgiAIgiAIPUiEL0EQBEEQhB4kwpcgCIIgCEIPEuFLEARBEAShB4nwJQj3QeSIONZPj+fNX20BIdxXbiEsm/4ky0bY/35ZQRCEB+QulpowJH7RGqa1bR3UiTyD1SOmsvre6nWfdKh7Ywbfjp3KqkYbpnyzikddtWkuSmLuE+8+4A1//ou5DeE/T3rT92oyI1fXsmDmIwTKM1i49CBJ6iIvPfsy42StL1DSVF9F7rlUvtiVRUavua3chkh3G0xNINDLBi4W/KpEbEwMwy0q2L3mmGqv0LsxZBQ7oh1uekrRWEHO2d7WXt1nsKcTUpM+4O7I4J15HLlvZ/Ln8zlhuFZmsHDpaQJffJoY21wS5m1n2X07pyAI/y3ufp2vliouHtjP+apOzzdf4/S91aln6LoQ/LgeqzbH4++o/aBr87/hYhVlQF8AGmm4XTioy+fQiXwqdIxwc3XGPTiKxc79+OTrg+zuFYGigEW7T/NeoBZHj/w6eAHYWTniIdPgXDecrfj8cY4VA+gh83bHJziK+WbaTP0unfxuOH5vcmRHMrsM3dG/kH4fgxdAOaWVqPYKpZa6pt8pLgiC0MHdhy9lA/l7lrCkN3YTyS+TmWOP1G80Jkpf7JSXyM51RabzoCsmANBUxaGkM6resF3JDIt/lNcDvZk0PIvd24ofdO26pD7zBDMzf79cd6guOMMXB9UPkjKY/uIEYpw9mGSTzsJbZ7//XvJrfLz+2oOuhSAIwm+6byvcG8YvYs20IEwAedZ6Zhz24B+TArHUBnllOt+/Po0VpfEsWjONIFUh1s84jMc/JhGoKkT6968zbYVq02dJ32hmLpxMtLM5upotKOqKOb91MbO+PkUDgMUMVm6IxRFQFh/kg68aeGJmNDJDTZT1eSQtfol/JrbWroHMrALcwkOZoStD61oiV3VckXW8AA17xv9jHhNCpZjratKiqKMkO4kVby9mV1tvnw5+z85h+ugAbE0N0NVUP60s4eA/JzJHPZYm6RvNjPdeJFxmhrGBNhJ1scas//DU5OWUd6o/ykZqq0q4sHsps1uvr/V8f/4nb44NwK6PNsiruHzgENXBsfjkr2bEVPVgr8SEkKnzeP0RL/r10UaibKTyegqb589jdVb70X6P/ZiZvDHSGb3bfL/02Ke8s/rOE0aT/E66CRTs3pxKjHckPlJnfCkmHUBfxsyJIUTY90VPUz3cduYEf995hQr1K1969mXGmWbwr6O6jI12wlxHA0VtISf3JTH3dHuXrb5jIAvGBOJqrosWzTSU5bFr6x6+vNphpX5tayY/Gk6k1ARjfe22yZLKa8d4ZmUKpdA+rNr2oiqOrlvP3Iutj+2ZOy2WUNPWxw6Mm/My41ofXk1m5Oo07m3V4yp+uFxMjK0+ekbQNjwGUHWejzbW8KcJA3Ax0kQpL+NowibezVR0vR3Qwjs4jOkRLtia6KKFkqbqcrJOHead/YXUq0uZ+oQwf6g3jm3HKuBQ4h4Wn2tsP5SFG7NH96e/tTFGbb88UJW2g4k/tW72bsJjsRHEe1vS10C3/Q/WjUw+/mQ/u27ZrlCRso0nNufd1DKt74eEzL4MH2iDkaaSpopcdmzpeI0mPBYfxQTvfhir3y+HTlQQEOVF+b5vmHKQmzXJKQXcu/4DEgRBuIfwpaGH3SPTmT6w9QkllakbWJVYCEBjehK/bCnGL3wknmb+vBpjRcmhraSZDSQiwI/xM55mxRvJJP2yhWK/cEZ6muH/agxWJYfYmmbGwIgA/MbP4OkVf2WNljfTFr3JSGdNys8nsvOyDt5DQvEb/w6Lm/7K1BU5UHOEPVvAO2AoYbbWxE80R5Kxh21Nbjw02JnIF2ayK/GTturf+D6dvFGjCDdp5nLCLzQEx3a4OEPiFn7KK8F9qL2eTuLJazTbBDAoeBRvLG4g68XPyQH0H57LO8+GYlpTQNaxg1wqbf3HIudyofpLiQ2vfjCLUS5QnpNKUtp1VFtOS9Auy1AFL1DXvxlLJBhYu+Dp6UH/8e+xVGMyL3+p+kek5TuDtyYFY6so43ziYbKVjgSHRNBPs0PV0cJ72kfMi3NCo+wSyTvPU2HoRujAQUyaP4fSp//Gti7mr4rM4+zTyuZ2g7J1V+6uF6q2tqY9YNTVc/G3CgNwiUuFkfhIzRgMpGPPOy8MY7BpE0UX09hdqMDS2Z2Q0Ef4sHkDL+7pMBZu7MKTYTVkp53kCP2I6C8jNPYR3i7dyMLVUgQBAAAOiUlEQVRrgIkvHzw+CHedGi6cTCVLXSZu4nAU/97OslIALZ6ZMIp4Vw0q8rM5dKmS1jPo1ZeqghdA8VV27q/BEDB18mWItPN1VHDw+HFKdEHqHUKAZRmp+7Np66epKrzH4KViqtPx17qAffuPU+DkyxCpETHhduhdTeXnBgsiB0gZPGwQgzMPc6RL7QDOQ4YzP9oB7ao8TiZfpwQj/Hw98Ysawdyq1cxKAdzC+WKcL30byzh3MpWrclWZR8aNpLloE5+UAvRj9sRohpg1UHQli+S8mrYPGcqKmrbaB8UO54VgU+pKcjmZWkRJa25vucH1W7QrRnYMDbK7feMYuxDjVkba8eNU93Ek3NuRuNiBHPsimVOAXXQkzwVao6zK4UByEY3mjoQN+NUPsl1dHeeAwQB1DfSOfllBEB60uw9fEhPcIuNov5mrmSLjU23hS5G9jWVLjjEjYCQ+UhnKtS8wdUUh9HmUj9dMwc/SmXDFGrYtW8KxGQGM9JEiU67lhakrKKQPj368hil+ljiHg67kCcKcdWnKTmDGFFXw0dr5N1YuHYb7Q+PxXLGYzIZk1i5JI35RBGGOzpgXzuWJdw+DxB7NVd8SY22NF1Cprm1L4U4uXB+Fo1UOKRuL0QvucG19JxEbYIo8O4HX1EEL9Hn4/W+ZHRzAaGv4ohAMA20wR8G1QwuZ+eFZbplpDEKQWWrTUp3Cj6+/xfrOc+RaNSSzdkly+2OTZ/h87Z9xDxmP55eLyUSX0ImB2FFHxvevqdoS0H/4fb6dHdreO6UbyhNhzmiXH+OTSa1BS4LNlG9YNc6DiGjYtr1rP+LaiwfY+vvJ6A6kMXVe+064c5d+08XXKWhWdng40ItgM8g9vKk9aCXlMHvKWIY4uWHHyfa5ThoKzu/5kdnpqocrSkfwfYwMTx9zuFaGz2AP3PWU5B7eyl/Vx9pUH8fyIQ4MHmjOsl/KAGucLbSh4Qrb1iaypp5bq8plVVIuAJEmHrcIX7XsTT7DXuAlxxACLOvITjrTzRO0+zFGZgbKIsqLAUpISCpR18cB2/rWHiEtlP2eJ15qgi9Q1aV2cOL5EAf0ay7y9Rf72NQ6/y7xItHSCvZlqx4+GeyBOUXsXNEatIDzCr59zh/vQCPYUwNYY2MBFF9gyffJnLnNXL4gCzOglJNb9vB+3u32DG1vV9yMiPit8KVRy6ktPzP/GsBZ6oyfJ17alyDgFOZM8rBBQ57LppU7WFYFcIag2PHMDzak6KYD5d30/l22+hsx0V4QhC67+/DVXETS3Cd4tytzvhS5pKxTdwVVb+SN+I23KkRuyjpUparZ+EY8raX6vtIPU5opzz1D62CE4uJBrpYOw85GxiDgpsEvZRkX9qsr1pLHh89G8yEAhsS3nS6dBZMeZgEAFszo8HJdHztMtUHHZRwr943jJs0KzF2AQqjcepTMhybgGbOUrUNrKC28wsUzSfy4+idSW0NW7R4OpE3Ed0ggLyXsYlJlMfnZmRzYvpwfk4raApvEZAATXnuaET5OWBppQYsSiTZIdA0wB0ALcz0daC7l6pHCturUp5ZRAxi3PmHgSz9T0NAexIzt+266LpDTx/IWTd/L+FgYo4MGDuGPsyO80zcr9XGDDhPNy8lJb/92/eki8mJkyCxskFBGgKkJUE1+Tnsqzj9fTNEQG2z62SGhjBbySMwsJiDUiaffeoHHqiooyLvOobNpJGTVcrss1lP62PRnShSgY4S3twcuJlCWksLyXwX9ai5ltQ7FKfhq5Td8pX70ZFfawcYKWyNounidzR3DkrywLXiBOVJTbdCwYsSUlxnRqQYVhqZADZDNkSw/nD38WfC2F3UVZVzOvcaRUxkk5LUPTW7LyOYRqQsPPf8XQuurKLxWQFpmJmtTStqGl+9MLSVtXY2dQj366OkAFeUc6dB2p27UAmZ3dTZBEIRbuW9zvm7WjLwLQ13NXSnUFS0tNN/uQ3IXNFc1okBJyfFlLFh/odOx6ynIUn2pyPqGV8f+iOfocTwZFYabkzuhf/Jj8Khx7HlvEgsOA9Ty85ynSHSMIG58LIP9XZAFDOW54EgeG7uGV6atplAniLc/X8gwWyU3CnLJy5ODRJ9+Tn3Q/VXt5NRX/urJdso65HKQX93CrK+SOn+Tiitdb4f7NefrzrngbAlUVnMBqGxSANWkbNvF2uudijbXc+k+1GD/zp84nmzFyCB3BrvY4OzmyyQfXx7NTua1NQ/2rsJ+XiGM8YLWpTmyDhxmbmL+LUKhkubmezhRnRwFoKX5W382GmhQAFUXWflDGhmdxlHlNa1v3lrWrV/LdjNHYkOdCXe0wdUvBN/AIMae3MGkbaqQmH9iDxPSjzPCz4dIH1ucZR6M9vAmJvwsi784Qud3eLdQKO4y2AmCIHRND4Wve1OXXkzlBDf6OvTHkcOqYUe3IcgsQJF7lWPdfD7F1WxKa6PxdvShb+YGEn8rEyrLyNyynHe2LAckWL/4JSufcMX/4XA43Not2EJNzkHWLT7IOgDdcN799j0iPAcygtWsNo7C3U5C8cH3eXzOfgAkVs/x+b+fbu/RQkFZQxNoWuMapQfrVZXSDzDHqGN9ak+TX/EsXnYehFQsYVkOd+1+zfm6M1p4D/XC2xCq0/PYD7QUVVGNNY4OBlw6ee13ep7McPQF1L1f+gOssAcqqspoAVIrqwAz7BxN4KKqu8POqx9WQGFx/k1zsOpvFJGQWERCouq4b70ynmgXKbGk3+WQkw6GJsDthqK7KPtWE8HvUJfaoaqc4hpwcJAx2SKdL0tvdaRaLpTXEmPbD98+lXyf+dufgirLc1i7PYe1ANoeLH4jCl9XJ6LIaw9W9TfYeTyZnccBtHj88af4s4eUKLcjJHXrsHg9DU2ApTkPa8O36t69IGPD7jyJIAhCd064V2u+xt7PtlAX+xxj3EyQGQESU3ynT2d68zX2fpbA2daTu8Ty3Bg3TFSFMPWdzvTpzVzb+xkJZ9sP2Xj0PyRfDibOJY6PvujLIfWEezuqyTjwA5mAXthTvDLIGksLbdBAVbegSlI3rCKxkDtTvZGVScNYEDuE/9uwlkfT0rhU2ojEwAqrmq28/akqVBlPmMMH4dpcvVJKI6Bp5kiAvyu6LQ0UXjilOpZuKH+d/wz2VRe4Xg1IDLD2DMDPAprz8zgD0FxLk1wD6YC/8MGs/hRq2uAX7IVBbTUaJt489e5kdL78isObzlIwOBr/v3zH526qCfcDApzR71h3xTmWbzrNwFeDmLjsR0JTU0m7Xg2aZtgZpfPRvA10tTm6f85XF+mYEBHVHx/0kHm64GVliEZ5Bp9tuaIKAeln2B0kY5z/CNba5JJ2STURW8/EFHlGIp/eVGcJ7pGPscgxm6uYE+orQ0dZytkU1RoM545kccE/HPew0Xyqm6GeaG6DRkMuR06UqY9hzvPjBuLSWER+LYAWlvaO+FsCpRWof9IM6N+fMPXaw6Zmqshq5dGfKXZAYymbknPbesi25RbwJ5kND/8lFpOM65Q0gYm+gi2/nKXDKOm9c3BlikufTvVpIvPMOfZ2CH1da4cr/Pt4Lt7RDox+6XF8zmWTUaUA9LAzq2Fdgqru2/enMco1jIHjn2L1lcuk5dXQgBaWFs0k/XhaHaqceOtpVwyKS9WT6PWwc5XhqQdNeWVtH6hiY2IYqlvGlSpViDOxkOLnqgfyQi5fvfkaATAyUX1YMJMyJcoS+PW13l4ZGy4U8lCEjAlTYrBPUU24D5Ddru9XEATh7nTjhHs1eQYVn+2kMmokcW2r4NsSFBdHkDyDig7hS9c3ipFxquUoAGyD4ogLkpNRcXP4QpHB0jcXob1wMtHuQ4nzUi01cfaHxcxSL0VhNPgR4mId217iFhmHW3MRxqfuInzRRMrHr/OPireYPDIAt7AReEuAFgXVZ9KAw4AmVg72yLxd8PBTv6xFQX1lAWcSvuZddc8UOnbYO7oQZO5J65x+ZWMNpRf3kfDJEtIAKlbw5WY//j7GnYEjpLTIb5B/+id2aMXxTFA/PMMeYsjOr0g8/CELvzPmzbEBeA2Nw7OxnHPbT6EYG4VtW91bKN04iym1M5n9bBgu/YciCwZQUp9TgxS6HL4eGAM7IiLtaB1Gy0lJZf2usxxsm2dUxbJ1W7gxPIxYH1tCwhxVSz80N5FeDDffPlnG0VNNDBgajJ966YCj25JUdzoCVKUza72WaomF4BDcaaahLIctW/e03eEHhtjZ2hJo7sgA9TNKeQNluWls2HGiLXwF+4cw5qb1SsApKAQngMoMznUIX/n79rOiTxSPedkQGmavPuYV8rs7fMncGRPZvgq+qj5VWOZ3CiRdage4fHAXs+sHMiXUHQf/AbhoAChpqrqIO+oOxtI03lzdyBsxAQQ5eDJMVQhF42XaRr0N+2Br74ini3PbsRWN1ZRknWDF5gx1b6YedhbWeLo44ttaqLmJyrJstu4+2NYz1fkaAZD6MUYK3Opaf8PlvUmsMIpigrcDD0U60FSdy9azTYwLM+jaAQRBELpAIpVKu+PuduEBkdi/xapvY7DO6LDOlwC0blUktnwR7o1+5Gh+irLrluFdQRAEEBtr924SE8KeD8AeBQVXu3vmmyAIaJvxqrsNUEru/biTQxCE/0m9YsK9oGY8gTkfDMUaQMMQCzsrzAy0oTqdxDU9tJeNIPw38x3E0kD1HgV6xjhYmmCgo0H95Sy++1/bqkkQhPtGhK/eRNsWqbsHThJA2UhdXQ35KUdYt/QjdvzhJ3IJQi9gbIabixQNVPP66urKOXvqFF/vuvo/t0m5IAj3j5jzJQiCIAiC0IPEnC9BEARBEIQeJMKXIAiCIAhCDxLhSxAEQRAEoQeJ8CUIgiAIgtCDRPgSBEEQBEHoQSJ8CYIgCIIg9CARvgRBEARBEHqQCF+CIAiCIAg9SIQvQRAEQRCEHiTClyAIgiAIQg8S4UsQBEEQBKEH/T+2GHJLaWiFuAAAAABJRU5ErkJggg==;" vertex="1" parent="1">
                    <mxGeometry x="102.66" y="840" width="404.67" height="110" as="geometry"/>
                </mxCell>
                <mxCell id="19" value="最後回傳" style="text;html=1;align=center;verticalAlign=middle;resizable=0;points=[];autosize=1;strokeColor=none;fillColor=none;" vertex="1" parent="1">
                    <mxGeometry x="428" y="800" width="70" height="30" as="geometry"/>
                </mxCell>
                <mxCell id="20" value="Hermes-&amp;gt; api/payment/deposit:&lt;br&gt;- 驗證 req 的 CompanyKey 與 webid&lt;br&gt;- 如果目前是 UM 的話，回傳正在維護的錯誤資訊&lt;br&gt;- 根據 PPID 創建對應的 PaymetProviderService&lt;br&gt;- 創建對應 PaymetProvider 的 request，call 對方的 api 取得 response" style="whiteSpace=wrap;html=1;rounded=0;align=left;" vertex="1" parent="1">
                    <mxGeometry x="480" y="585" width="300" height="115" as="geometry"/>
                </mxCell>
            </root>
        </mxGraphModel>
    </diagram>
</mxfile>